<svg id="Layer_2" data-name="Layer 2" xmlns="http://www.w3.org/2000/svg" viewBox="0 0 821.79 149.47">
  <g id="Layer_1-2" data-name="Layer 1">
    <g>
      <g>
        <path fill="#fff" stroke-width="0px" d="m230.06,125.43c-2.05-1.08-4.43-1.62-7.14-1.62h-10.36v25.44h10.36c2.71,0,5.09-.54,7.14-1.62,2.05-1.08,3.64-2.57,4.78-4.49,1.14-1.91,1.71-4.12,1.71-6.61s-.57-4.7-1.71-6.62c-1.14-1.91-2.73-3.41-4.78-4.49Zm2.45,16.5c-.92,1.56-2.21,2.79-3.87,3.67-1.66.89-3.62,1.33-5.87,1.33h-7.52v-20.79h7.52c2.25,0,4.21.44,5.87,1.33s2.95,2.1,3.87,3.65c.92,1.55,1.38,3.36,1.38,5.42s-.46,3.83-1.38,5.4Z"/>
        <path fill="#fff" stroke-width="0px" d="m271.73,123.81l-11.63,25.44h2.8l3.04-6.8h14.2l3.04,6.8h2.83l-11.63-25.44h-2.65Zm-4.81,16.46l6.12-13.68,6.12,13.68h-12.25Z"/>
        <polygon fill="#fff" stroke-width="0px" points="307.82 126.14 316.76 126.14 316.76 149.25 319.45 149.25 319.45 126.14 328.4 126.14 328.4 123.81 307.82 123.81 307.82 126.14"/>
        <path fill="#fff" stroke-width="0px" d="m361.83,123.81l-11.63,25.44h2.8l3.04-6.8h14.2l3.04,6.8h2.83l-11.63-25.44h-2.65Zm-4.81,16.46l6.12-13.68,6.12,13.68h-12.25Z"/>
        <path fill="#fff" stroke-width="0px" d="m446.43,137.31c-.93-.5-1.95-.9-3.05-1.22-1.1-.31-2.21-.61-3.33-.87-1.11-.27-2.14-.57-3.07-.91-.93-.34-1.68-.81-2.25-1.42-.57-.61-.85-1.41-.85-2.4,0-.87.24-1.65.71-2.34.47-.69,1.2-1.24,2.2-1.65.99-.41,2.25-.62,3.78-.62,1.14,0,2.32.17,3.54.51,1.22.34,2.38.87,3.47,1.6l.91-2.14c-1.02-.7-2.23-1.25-3.63-1.65-1.41-.4-2.82-.6-4.25-.6-2.16,0-3.92.32-5.31.96-1.38.64-2.41,1.49-3.07,2.54-.67,1.05-1,2.21-1,3.47,0,1.36.28,2.45.85,3.29.57.84,1.32,1.51,2.25,2.02.93.51,1.96.92,3.07,1.22,1.11.3,2.23.59,3.34.85,1.11.27,2.13.58,3.05.93s1.67.83,2.24,1.44c.57.61.85,1.41.85,2.4,0,.82-.24,1.58-.71,2.25-.47.68-1.21,1.22-2.22,1.62-1.01.4-2.31.6-3.91.6s-3.27-.3-4.78-.89-2.72-1.33-3.62-2.2l-1.05,2.07c.94.97,2.28,1.76,4.02,2.38,1.73.62,3.54.93,5.43.93,2.18,0,3.97-.32,5.36-.96,1.39-.64,2.43-1.49,3.11-2.54.68-1.05,1.02-2.2,1.02-3.43,0-1.33-.29-2.41-.85-3.24-.57-.82-1.32-1.48-2.25-1.98Z"/>
        <path fill="#fff" stroke-width="0px" d="m497.64,127.26c-1.2-1.16-2.61-2.07-4.23-2.71-1.62-.64-3.39-.96-5.31-.96s-3.72.32-5.34.96c-1.62.64-3.04,1.55-4.23,2.73-1.2,1.18-2.13,2.54-2.8,4.11s-1,3.28-1,5.14.33,3.58,1,5.14,1.6,2.93,2.8,4.11,2.62,2.08,4.25,2.73c1.64.64,3.41.96,5.32.96s3.68-.32,5.31-.96c1.62-.64,3.04-1.54,4.23-2.71,1.2-1.16,2.13-2.53,2.8-4.11s1-3.29,1-5.16-.33-3.59-1-5.16c-.67-1.57-1.6-2.94-2.8-4.11Zm.31,13.47c-.53,1.27-1.28,2.39-2.24,3.34-.96.96-2.08,1.7-3.38,2.22s-2.71.78-4.23.78-2.94-.26-4.25-.78c-1.31-.52-2.44-1.26-3.4-2.22s-1.71-2.08-2.25-3.36-.82-2.68-.82-4.18.27-2.93.82-4.2,1.3-2.39,2.25-3.34,2.09-1.7,3.4-2.22c1.31-.52,2.73-.78,4.25-.78s2.94.26,4.23.78c1.3.52,2.42,1.26,3.38,2.22.96.96,1.7,2.07,2.24,3.34s.8,2.67.8,4.2-.27,2.93-.8,4.2Z"/>
        <polygon fill="#fff" stroke-width="0px" points="531.75 123.81 529.06 123.81 529.06 149.25 546 149.25 546 146.93 531.75 146.93 531.75 123.81"/>
        <path fill="#fff" stroke-width="0px" d="m590.12,138.28c0,3-.68,5.22-2.03,6.65-1.36,1.43-3.28,2.14-5.78,2.14s-4.39-.71-5.74-2.14c-1.36-1.43-2.03-3.65-2.03-6.65v-14.47h-2.69v14.57c0,3.66.93,6.42,2.8,8.29,1.87,1.87,4.42,2.8,7.67,2.8s5.8-.93,7.65-2.8c1.85-1.87,2.78-4.63,2.78-8.29v-14.57h-2.62v14.47Z"/>
        <polygon fill="#fff" stroke-width="0px" points="618.43 126.14 627.37 126.14 627.37 149.25 630.06 149.25 630.06 126.14 639 126.14 639 123.81 618.43 123.81 618.43 126.14"/>
        <rect fill="#fff" stroke-width="0px" x="664.88" y="123.81" width="2.69" height="25.44"/>
        <path fill="#fff" stroke-width="0px" d="m718.11,127.26c-1.2-1.16-2.61-2.07-4.23-2.71-1.62-.64-3.39-.96-5.31-.96s-3.72.32-5.34.96c-1.62.64-3.04,1.55-4.23,2.73-1.2,1.18-2.13,2.54-2.8,4.11-.67,1.56-1,3.28-1,5.14s.33,3.58,1,5.14c.67,1.56,1.6,2.93,2.8,4.11s2.62,2.08,4.25,2.73c1.63.64,3.41.96,5.32.96s3.68-.32,5.31-.96c1.62-.64,3.04-1.54,4.23-2.71,1.2-1.16,2.13-2.53,2.8-4.11s1-3.29,1-5.16-.33-3.59-1-5.16c-.67-1.57-1.6-2.94-2.8-4.11Zm.31,13.47c-.53,1.27-1.28,2.39-2.24,3.34-.96.96-2.08,1.7-3.38,2.22s-2.71.78-4.23.78-2.94-.26-4.25-.78c-1.31-.52-2.44-1.26-3.4-2.22s-1.71-2.08-2.25-3.36c-.55-1.28-.82-2.68-.82-4.18s.27-2.93.82-4.2c.54-1.27,1.29-2.39,2.25-3.34s2.09-1.7,3.4-2.22c1.31-.52,2.73-.78,4.25-.78s2.94.26,4.23.78c1.3.52,2.42,1.26,3.38,2.22.96.96,1.7,2.07,2.24,3.34s.8,2.67.8,4.2-.27,2.93-.8,4.2Z"/>
        <polygon fill="#fff" stroke-width="0px" points="768.14 144.44 751.75 123.81 749.53 123.81 749.53 149.25 752.22 149.25 752.22 128.62 768.57 149.25 770.79 149.25 770.79 123.81 768.14 123.81 768.14 144.44"/>
        <path fill="#fff" stroke-width="0px" d="m816.31,139.29c-.57-.82-1.32-1.48-2.25-1.98-.93-.5-1.95-.9-3.05-1.22-1.1-.31-2.21-.61-3.33-.87-1.11-.27-2.14-.57-3.07-.91-.93-.34-1.68-.81-2.25-1.42-.57-.61-.85-1.41-.85-2.4,0-.87.24-1.65.71-2.34s1.21-1.24,2.2-1.65c.99-.41,2.25-.62,3.78-.62,1.14,0,2.32.17,3.54.51,1.22.34,2.38.87,3.47,1.6l.91-2.14c-1.02-.7-2.23-1.25-3.63-1.65-1.41-.4-2.82-.6-4.25-.6-2.16,0-3.93.32-5.31.96-1.38.64-2.41,1.49-3.07,2.54-.67,1.05-1,2.21-1,3.47,0,1.36.28,2.45.85,3.29s1.32,1.51,2.25,2.02c.93.51,1.96.92,3.07,1.22,1.11.3,2.23.59,3.34.85,1.11.27,2.13.58,3.05.93.92.35,1.66.83,2.23,1.44s.86,1.41.86,2.4c0,.82-.24,1.58-.71,2.25-.47.68-1.21,1.22-2.22,1.62-1.01.4-2.31.6-3.91.6s-3.27-.3-4.78-.89-2.72-1.33-3.62-2.2l-1.05,2.07c.94.97,2.28,1.76,4.02,2.38s3.54.93,5.43.93c2.18,0,3.97-.32,5.36-.96s2.43-1.49,3.11-2.54c.68-1.05,1.02-2.2,1.02-3.43,0-1.33-.29-2.41-.86-3.24Z"/>
      </g>
      <g>
        <path fill="#fff" stroke-width="0px" d="m293.12,50.76c-1.97-1.81-4.94-3.12-8.91-3.93-3.96-.81-9.26-1.27-15.89-1.39l-28.24-.45c-5.18-.08-9.27-.29-12.27-.65-3-.36-5.22-1.02-6.66-1.98-1.44-.96-2.36-2.37-2.77-4.22-.41-1.85-.62-4.3-.62-7.36,0-3.62.29-6.47.88-8.55.58-2.07,1.74-3.59,3.48-4.53,1.74-.94,4.3-1.55,7.7-1.81,3.39-.27,7.92-.4,13.57-.4h19.81c4.64,0,8.53.04,11.65.11,3.13.08,5.62.59,7.46,1.53s3.17,2.71,3.98,5.29c.8,2.58,1.21,6.4,1.21,11.46h9.1c0-6.53-.55-11.66-1.63-15.39-1.09-3.73-2.9-6.49-5.42-8.26-2.53-1.77-5.94-2.9-10.23-3.4-4.3-.49-9.67-.74-16.11-.74h-20.28c-7.11,0-12.9.37-17.39,1.1-4.48.74-7.95,2.01-10.4,3.82s-4.14,4.32-5.07,7.53c-.93,3.21-1.4,7.28-1.4,12.23,0,4.53.34,8.3,1.02,11.32.68,3.02,2.03,5.42,4.05,7.21,2.02,1.79,5.01,3.1,8.95,3.93,3.95.83,9.17,1.3,15.68,1.41l26.34.45c5.65.11,10.11.31,13.36.59,3.25.28,5.65.89,7.2,1.81,1.55.92,2.54,2.35,2.98,4.27.44,1.92.66,4.56.66,7.92,0,3.77-.23,6.81-.69,9.11-.46,2.3-1.48,4.07-3.05,5.29-1.58,1.23-4.01,2.06-7.3,2.49-3.29.43-7.75.65-13.41.65h-21.7c-5.05,0-9.22-.12-12.48-.37-3.27-.24-5.81-1-7.63-2.26-1.82-1.26-3.09-3.35-3.81-6.25-.73-2.9-1.09-7.02-1.09-12.34h-9.1c0,6.79.57,12.22,1.71,16.3,1.14,4.08,3.01,7.14,5.61,9.2,2.61,2.06,6.1,3.43,10.49,4.1,4.39.68,9.82,1.02,16.3,1.02h22.17c7.11,0,12.84-.45,17.2-1.36,4.36-.91,7.69-2.4,10-4.47,2.3-2.07,3.86-4.84,4.67-8.29.8-3.45,1.21-7.72,1.21-12.82,0-4.68-.32-8.55-.97-11.63Z"/>
        <path fill="#fff" stroke-width="0px" d="m349.33,7.92l-42.45,86.93h10.61l9.1-19.92h57.61l9.1,19.92h10.61L361.46,7.92h-12.13Zm-18.19,57.95l24.26-50.71,24.26,50.71h-48.52Z"/>
        <polygon fill="#fff" stroke-width="0px" points="425.14 7.92 416.04 7.92 416.04 94.85 482.75 94.85 482.75 85.79 425.14 85.79 425.14 7.92"/>
        <rect fill="#fff" stroke-width="0px" x="494.88" y="7.92" width="9.1" height="86.93"/>
        <polygon fill="#fff" stroke-width="0px" points="604.84 81.44 604.75 81.44 531.64 7.92 522.17 7.92 522.17 94.85 531.27 94.85 531.27 20.71 531.36 20.71 604.46 94.85 613.94 94.85 613.94 7.92 604.84 7.92 604.84 81.44"/>
        <path fill="#fff" stroke-width="0px" d="m668.52,7.92l-42.45,86.93h10.61l9.1-19.92h57.61l9.1,19.92h10.61l-42.45-86.93h-12.13Zm-18.19,57.95l24.26-50.71,24.26,50.71h-48.52Z"/>
        <path fill="#fff" stroke-width="0px" d="m820.82,58.09c-.65-3.08-1.96-5.52-3.93-7.33-1.97-1.81-4.94-3.12-8.91-3.93-3.96-.81-9.26-1.27-15.89-1.39l-28.24-.45c-5.18-.08-9.27-.29-12.27-.65-3-.36-5.22-1.02-6.66-1.98-1.44-.96-2.36-2.37-2.77-4.22-.41-1.85-.62-4.3-.62-7.36,0-3.62.29-6.47.88-8.55.58-2.07,1.74-3.59,3.48-4.53,1.74-.94,4.3-1.55,7.7-1.81,3.39-.27,7.92-.4,13.57-.4h19.81c4.64,0,8.53.04,11.65.11,3.13.08,5.62.59,7.46,1.53s3.17,2.71,3.98,5.29c.8,2.58,1.21,6.4,1.21,11.46h9.1c0-6.53-.55-11.66-1.63-15.39-1.09-3.73-2.9-6.49-5.42-8.26-2.53-1.77-5.94-2.9-10.23-3.4-4.3-.49-9.67-.74-16.11-.74h-20.28c-7.11,0-12.9.37-17.39,1.1-4.48.74-7.95,2.01-10.4,3.82s-4.14,4.32-5.07,7.53c-.93,3.21-1.4,7.28-1.4,12.23,0,4.53.34,8.3,1.02,11.32.68,3.02,2.03,5.42,4.05,7.21,2.02,1.79,5.01,3.1,8.95,3.93,3.95.83,9.17,1.3,15.68,1.41l26.34.45c5.65.11,10.11.31,13.36.59,3.25.28,5.65.89,7.2,1.81,1.55.92,2.54,2.35,2.98,4.27.44,1.92.66,4.56.66,7.92,0,3.77-.23,6.81-.69,9.11-.46,2.3-1.48,4.07-3.05,5.29-1.58,1.23-4.01,2.06-7.3,2.49-3.29.43-7.75.65-13.41.65h-21.7c-5.05,0-9.22-.12-12.48-.37-3.27-.24-5.81-1-7.63-2.26-1.82-1.26-3.09-3.35-3.81-6.25-.73-2.9-1.09-7.02-1.09-12.34h-9.1c0,6.79.57,12.22,1.71,16.3,1.14,4.08,3.01,7.14,5.61,9.2,2.61,2.06,6.1,3.43,10.49,4.1,4.39.68,9.82,1.02,16.3,1.02h22.17c7.11,0,12.84-.45,17.2-1.36,4.36-.91,7.69-2.4,10-4.47,2.3-2.07,3.86-4.84,4.67-8.29.8-3.45,1.21-7.72,1.21-12.82,0-4.68-.32-8.55-.97-11.63Z"/>
      </g>
      <path fill="#ff8100" stroke-width="0px" d="m149.33,66.61c-7.34,0-13.29,5.95-13.29,13.29,0,.26.06.51.08.76-3.83,3.41-8.71,4.36-12.57,4.85-2.81-5.8-8.73-9.82-15.61-9.83-2.38-3.04-4.17-6.36-5.01-9.34,4.47-3.56,7.34-9.03,7.34-15.18,0-5.74-2.51-10.88-6.47-14.44.06-.63.14-1.25.26-1.85.24-1.22,2.02-4.29,3.8-6.9.94.2,1.92.3,2.92.3,7.81,0,14.14-6.33,14.14-14.14S118.59,0,110.78,0s-14.14,6.33-14.14,14.14c0,4.5,2.11,8.5,5.39,11.09-.92,3.06-2.62,5.66-4.28,7.81-2.14-.82-4.46-1.28-6.89-1.28-10.72,0-19.41,8.69-19.41,19.41,0,1.9.28,3.72.79,5.46-.59.93-1.23,1.83-1.96,2.61-.74.79-3.53,2.14-6.19,3.17-3.09-4.84-8.49-8.06-14.65-8.06s-11.08,2.93-14.22,7.41c-.26.02-.52.06-.77.07-1.11.04-4.18-1.05-6.85-2.23.11-.7.22-1.41.22-2.15,0-7.68-6.23-13.9-13.91-13.9S0,49.76,0,57.44s6.23,13.91,13.9,13.91c4.44,0,8.35-2.12,10.9-5.37,2.79-.2,5.43.58,7.76,1.62-.32,1.33-.51,2.7-.51,4.13,0,9.6,7.78,17.38,17.38,17.38s17.38-7.78,17.38-17.38c0-.99-.1-1.96-.26-2.9,2.61-2.9,6.34-4.27,9.46-5.17,3.56,4.23,8.89,6.92,14.85,6.92,1.35,0,2.66-.14,3.93-.4,1.02,1,2,2.04,2.8,3.17,1.22,1.72,1.93,3.65,1.51,4.76-5.12,3.02-8.57,8.58-8.57,14.96,0,8.33,5.86,15.28,13.69,16.98.27.77.52,1.54.7,2.33.23,1.05-.02,3.8-.46,6.52-5.65,1.53-9.83,6.64-9.83,12.77,0,7.34,5.95,13.29,13.29,13.29s13.29-5.95,13.29-13.29c0-6.44-4.58-11.81-10.67-13.02-.09-3.17.61-6.17,1.31-8.66,7.52-1.74,13.15-8.34,13.43-16.32.97-.98,1.97-1.91,3.06-2.69,1.38-.98,7.15-2.5,10.56-2.96,2.43,3.12,6.18,5.17,10.45,5.17,7.34,0,13.29-5.95,13.29-13.29s-5.95-13.29-13.29-13.29Z"/>
    </g>
  </g>
</svg>
