<svg id="Layer_2" data-name="Layer 2" xmlns="http://www.w3.org/2000/svg" viewBox="0 0 531.21 96.62">
  <defs>
    <style>
      .cls-1 {
        fill: #ff8100;
      }

      .cls-1, .cls-2 {
        stroke-width: 0px;
      }

      .cls-2 {
        fill: #fff;
      }
    </style>
  </defs>
  <g id="Layer_1-2" data-name="Layer 1">
    <g>
      <g>
        <path class="cls-2" d="m137.4,96.48v-16.45h6.7c1.75,0,3.29.35,4.62,1.05,1.32.7,2.35,1.66,3.09,2.9.74,1.24,1.1,2.66,1.1,4.28s-.37,3.04-1.1,4.28c-.74,1.24-1.77,2.2-3.09,2.9-1.32.7-2.86,1.05-4.62,1.05h-6.7Zm1.74-1.5h4.86c1.46,0,2.72-.29,3.79-.86,1.07-.57,1.91-1.36,2.5-2.37.59-1.01.89-2.17.89-3.49s-.3-2.5-.89-3.5c-.6-1-1.43-1.79-2.5-2.36s-2.34-.86-3.79-.86h-4.86v13.44Z"/>
        <path class="cls-2" d="m168.13,96.48l7.52-16.45h1.72l7.52,16.45h-1.83l-6.91-15.44h.7l-6.91,15.44h-1.81Zm2.96-4.39l.52-1.41h9.56l.52,1.41h-10.6Z"/>
        <path class="cls-2" d="m204.76,96.48v-14.94h-5.78v-1.5h13.3v1.5h-5.78v14.94h-1.74Z"/>
        <path class="cls-2" d="m226.37,96.48l7.52-16.45h1.72l7.52,16.45h-1.83l-6.91-15.44h.7l-6.91,15.44h-1.81Zm2.96-4.39l.52-1.41h9.56l.52,1.41h-10.6Z"/>
        <path class="cls-2" d="m284.45,96.62c-1.22,0-2.39-.2-3.51-.6-1.12-.4-1.99-.91-2.6-1.54l.68-1.34c.58.56,1.36,1.04,2.34,1.42s2.01.58,3.09.58,1.88-.13,2.53-.39c.65-.26,1.13-.61,1.43-1.05.31-.44.46-.92.46-1.46,0-.64-.18-1.16-.55-1.55-.37-.39-.85-.7-1.45-.93s-1.25-.43-1.97-.6c-.72-.17-1.44-.36-2.16-.55-.72-.2-1.38-.46-1.99-.79-.6-.33-1.09-.76-1.46-1.3-.37-.54-.55-1.25-.55-2.13,0-.81.22-1.56.65-2.24.43-.68,1.09-1.23,1.98-1.64.89-.41,2.04-.62,3.43-.62.92,0,1.84.13,2.75.39.91.26,1.69.62,2.35,1.07l-.59,1.39c-.7-.47-1.45-.81-2.24-1.03-.79-.22-1.55-.33-2.29-.33-.99,0-1.8.13-2.44.4-.64.27-1.12.62-1.42,1.07-.31.45-.46.95-.46,1.52,0,.64.18,1.16.55,1.55.37.39.85.7,1.46.92.6.22,1.26.42,1.99.59.72.17,1.44.36,2.15.56.71.2,1.37.47,1.97.79.6.32,1.09.75,1.46,1.28.37.53.55,1.23.55,2.09,0,.8-.22,1.54-.66,2.22-.44.68-1.11,1.23-2.01,1.64-.9.42-2.06.62-3.47.62Z"/>
        <path class="cls-2" d="m315.51,96.62c-1.24,0-2.38-.21-3.44-.62-1.06-.42-1.97-1-2.75-1.76s-1.38-1.64-1.81-2.65-.65-2.12-.65-3.32.22-2.31.65-3.32,1.03-1.9,1.81-2.65c.78-.76,1.69-1.35,2.74-1.76,1.05-.41,2.2-.62,3.45-.62s2.38.21,3.43.62c1.05.42,1.96,1,2.74,1.75.78.75,1.38,1.64,1.81,2.65.43,1.02.65,2.13.65,3.34s-.22,2.32-.65,3.34-1.03,1.9-1.81,2.65c-.77.75-1.69,1.34-2.74,1.75-1.05.42-2.19.62-3.43.62Zm0-1.55c.99,0,1.9-.17,2.74-.5s1.57-.81,2.18-1.43c.62-.62,1.1-1.34,1.45-2.16s.52-1.73.52-2.71-.17-1.89-.52-2.71-.83-1.54-1.45-2.16c-.62-.62-1.35-1.1-2.18-1.43-.84-.34-1.75-.5-2.74-.5s-1.9.17-2.75.5c-.85.34-1.58.81-2.2,1.43s-1.1,1.34-1.46,2.16-.53,1.73-.53,2.71.18,1.87.53,2.7.84,1.55,1.46,2.17,1.35,1.1,2.2,1.43,1.76.5,2.75.5Z"/>
        <path class="cls-2" d="m341.99,96.48v-16.45h1.74v14.94h9.21v1.5h-10.95Z"/>
        <path class="cls-2" d="m376.4,96.62c-2.1,0-3.75-.6-4.96-1.81-1.21-1.21-1.81-2.99-1.81-5.36v-9.42h1.74v9.35c0,1.94.44,3.38,1.32,4.3.88.92,2.11,1.39,3.71,1.39s2.86-.46,3.74-1.39c.88-.92,1.32-2.36,1.32-4.3v-9.35h1.69v9.42c0,2.37-.6,4.15-1.8,5.36s-2.85,1.81-4.95,1.81Z"/>
        <path class="cls-2" d="m405.54,96.48v-14.94h-5.78v-1.5h13.3v1.5h-5.78v14.94h-1.74Z"/>
        <path class="cls-2" d="m429.78,96.48v-16.45h1.74v16.45h-1.74Z"/>
        <path class="cls-2" d="m458.02,96.62c-1.24,0-2.38-.21-3.44-.62-1.06-.42-1.97-1-2.75-1.76s-1.38-1.64-1.81-2.65c-.43-1.01-.65-2.12-.65-3.32s.21-2.31.65-3.32c.43-1.01,1.03-1.9,1.81-2.65.78-.76,1.69-1.35,2.74-1.76,1.05-.41,2.2-.62,3.45-.62s2.38.21,3.43.62c1.05.42,1.96,1,2.74,1.75.78.75,1.38,1.64,1.81,2.65.43,1.02.65,2.13.65,3.34s-.22,2.32-.65,3.34-1.03,1.9-1.81,2.65c-.77.75-1.69,1.34-2.74,1.75-1.05.42-2.19.62-3.43.62Zm0-1.55c.99,0,1.9-.17,2.74-.5s1.57-.81,2.18-1.43c.62-.62,1.1-1.34,1.45-2.16s.52-1.73.52-2.71-.17-1.89-.52-2.71-.83-1.54-1.45-2.16c-.62-.62-1.35-1.1-2.18-1.43-.84-.34-1.75-.5-2.74-.5s-1.9.17-2.75.5c-.85.34-1.58.81-2.2,1.43s-1.1,1.34-1.46,2.16c-.35.82-.53,1.73-.53,2.71s.18,1.87.53,2.7c.35.83.84,1.55,1.46,2.17s1.35,1.1,2.2,1.43c.85.34,1.76.5,2.75.5Z"/>
        <path class="cls-2" d="m484.5,96.48v-16.45h1.43l11.35,14.28h-.75v-14.28h1.71v16.45h-1.43l-11.32-14.28h.75v14.28h-1.74Z"/>
        <path class="cls-2" d="m522.09,96.62c-1.22,0-2.39-.2-3.51-.6s-1.99-.91-2.6-1.54l.68-1.34c.58.56,1.36,1.04,2.34,1.42s2.01.58,3.09.58,1.88-.13,2.53-.39c.65-.26,1.13-.61,1.43-1.05.3-.44.46-.92.46-1.46,0-.64-.18-1.16-.55-1.55-.37-.39-.85-.7-1.44-.93-.6-.23-1.25-.43-1.97-.6-.72-.17-1.44-.36-2.16-.55-.72-.2-1.38-.46-1.99-.79-.6-.33-1.09-.76-1.46-1.3s-.55-1.25-.55-2.13c0-.81.21-1.56.65-2.24.43-.68,1.09-1.23,1.99-1.64.89-.41,2.04-.62,3.43-.62.92,0,1.84.13,2.75.39.91.26,1.69.62,2.35,1.07l-.59,1.39c-.71-.47-1.45-.81-2.24-1.03-.79-.22-1.55-.33-2.29-.33-.99,0-1.8.13-2.44.4-.64.27-1.12.62-1.42,1.07s-.46.95-.46,1.52c0,.64.18,1.16.55,1.55.37.39.85.7,1.46.92.6.22,1.26.42,1.99.59.72.17,1.44.36,2.15.56.71.2,1.37.47,1.97.79.6.32,1.09.75,1.46,1.28.37.53.55,1.23.55,2.09,0,.8-.22,1.54-.66,2.22-.44.68-1.11,1.23-2.01,1.64s-2.06.62-3.46.62Z"/>
      </g>
      <g>
        <path class="cls-2" d="m186.76,45.07c0-2.17-.14-3.88-.43-5.12-.29-1.24-.93-2.17-1.93-2.76-1-.6-2.55-.99-4.66-1.17-2.1-.18-4.98-.31-8.64-.38l-17.03-.29c-4.21-.07-7.58-.38-10.14-.91-2.55-.54-4.48-1.38-5.79-2.54-1.31-1.16-2.18-2.71-2.62-4.66-.44-1.95-.66-4.39-.66-7.32,0-3.2.3-5.83.9-7.9.6-2.07,1.69-3.69,3.28-4.87,1.58-1.17,3.82-1.99,6.72-2.47,2.9-.48,6.65-.71,11.24-.71h13.11c4.16,0,7.63.16,10.41.48,2.78.32,4.98,1.05,6.61,2.2,1.63,1.15,2.8,2.93,3.51,5.34.7,2.42,1.06,5.73,1.06,9.95h-5.88c0-3.27-.26-5.74-.78-7.41-.52-1.67-1.38-2.81-2.57-3.42s-2.8-.94-4.82-.99c-2.02-.05-4.53-.07-7.53-.07h-12.8c-3.65,0-6.58.09-8.77.26-2.2.17-3.85.56-4.98,1.17-1.12.61-1.87,1.59-2.25,2.93-.38,1.34-.57,3.18-.57,5.52,0,1.97.13,3.56.4,4.75.27,1.2.86,2.1,1.79,2.73.93.62,2.36,1.05,4.3,1.28,1.94.23,4.58.37,7.93.42l18.25.29c4.29.07,7.71.37,10.27.9,2.56.53,4.48,1.37,5.76,2.54,1.28,1.17,2.12,2.75,2.54,4.74.42,1.99.63,4.49.63,7.52,0,3.29-.26,6.06-.78,8.29-.52,2.23-1.53,4.02-3.02,5.36-1.49,1.34-3.65,2.31-6.46,2.89s-6.52.88-11.12.88h-14.33c-4.19,0-7.7-.22-10.54-.66-2.84-.44-5.1-1.32-6.78-2.65-1.68-1.33-2.89-3.31-3.63-5.95-.74-2.63-1.1-6.15-1.1-10.54h5.88c0,3.44.23,6.1.7,7.98s1.29,3.23,2.46,4.04,2.82,1.3,4.93,1.46c2.11.16,4.8.24,8.07.24h14.03c3.65,0,6.54-.14,8.67-.42,2.12-.28,3.7-.82,4.72-1.61,1.02-.79,1.68-1.93,1.97-3.42.3-1.49.44-3.45.44-5.89Z"/>
        <path class="cls-2" d="m198.37,61.31l27.44-56.19h7.84l27.44,56.19h-6.86l-5.88-12.88h-37.24l-5.88,12.88h-6.86Zm15.68-18.73h31.36l-15.68-32.78-15.68,32.78Z"/>
        <path class="cls-2" d="m268.93,61.31V5.12h5.88v50.34h37.24v5.85h-43.12Z"/>
        <path class="cls-2" d="m319.89,61.31V5.12h5.88v56.19h-5.88Z"/>
        <path class="cls-2" d="m337.53,61.31V5.12h6.13l47.25,47.52h.06V5.12h5.88v56.19h-6.13l-47.25-47.93h-.06v47.93h-5.88Z"/>
        <path class="cls-2" d="m404.69,61.31l27.44-56.19h7.84l27.44,56.19h-6.86l-5.88-12.88h-37.24l-5.88,12.88h-6.86Zm15.68-18.73h31.36l-15.68-32.78-15.68,32.78Z"/>
        <path class="cls-2" d="m525.33,45.07c0-2.17-.14-3.88-.43-5.12-.29-1.24-.93-2.17-1.93-2.76-1-.6-2.55-.99-4.66-1.17-2.1-.18-4.98-.31-8.64-.38l-17.03-.29c-4.21-.07-7.58-.38-10.14-.91-2.55-.54-4.48-1.38-5.79-2.54-1.31-1.16-2.18-2.71-2.62-4.66-.44-1.95-.66-4.39-.66-7.32,0-3.2.3-5.83.9-7.9.6-2.07,1.69-3.69,3.28-4.87,1.58-1.17,3.82-1.99,6.72-2.47,2.9-.48,6.65-.71,11.24-.71h13.11c4.16,0,7.63.16,10.41.48,2.78.32,4.98,1.05,6.61,2.2,1.63,1.15,2.8,2.93,3.51,5.34.7,2.42,1.06,5.73,1.06,9.95h-5.88c0-3.27-.26-5.74-.78-7.41s-1.38-2.81-2.57-3.42-2.8-.94-4.82-.99c-2.02-.05-4.53-.07-7.53-.07h-12.8c-3.65,0-6.58.09-8.77.26-2.2.17-3.85.56-4.98,1.17-1.12.61-1.87,1.59-2.25,2.93-.38,1.34-.57,3.18-.57,5.52,0,1.97.13,3.56.4,4.75.27,1.2.86,2.1,1.79,2.73.93.62,2.36,1.05,4.3,1.28,1.94.23,4.58.37,7.93.42l18.25.29c4.29.07,7.71.37,10.27.9,2.56.53,4.48,1.37,5.76,2.54,1.28,1.17,2.12,2.75,2.54,4.74.42,1.99.63,4.49.63,7.52,0,3.29-.26,6.06-.78,8.29-.52,2.23-1.53,4.02-3.02,5.36-1.49,1.34-3.65,2.31-6.46,2.89s-6.52.88-11.12.88h-14.33c-4.19,0-7.7-.22-10.54-.66-2.84-.44-5.1-1.32-6.78-2.65-1.68-1.33-2.89-3.31-3.63-5.95-.74-2.63-1.1-6.15-1.1-10.54h5.88c0,3.44.23,6.1.7,7.98s1.29,3.23,2.46,4.04c1.17.82,2.82,1.3,4.93,1.46,2.11.16,4.8.24,8.07.24h14.03c3.65,0,6.54-.14,8.67-.42,2.12-.28,3.7-.82,4.72-1.61,1.02-.79,1.68-1.93,1.97-3.42.3-1.49.44-3.45.44-5.89Z"/>
      </g>
      <path class="cls-1" d="m96.53,43.06c-4.74,0-8.59,3.85-8.59,8.59,0,.17.04.33.05.49-2.48,2.2-5.63,2.82-8.13,3.14-1.82-3.75-5.65-6.35-10.09-6.35-1.54-1.97-2.7-4.11-3.24-6.04,2.89-2.3,4.74-5.84,4.74-9.81,0-3.71-1.62-7.04-4.18-9.33.04-.4.09-.81.17-1.2.16-.79,1.31-2.78,2.46-4.46.61.13,1.24.2,1.89.2,5.05,0,9.14-4.09,9.14-9.14S76.66,0,71.61,0s-9.14,4.09-9.14,9.14c0,2.91,1.36,5.5,3.48,7.17-.59,1.98-1.69,3.66-2.77,5.05-1.39-.53-2.88-.83-4.45-.83-6.93,0-12.55,5.62-12.55,12.55,0,1.23.18,2.41.51,3.53-.38.6-.79,1.18-1.27,1.69-.48.51-2.28,1.38-4,2.05-1.99-3.13-5.49-5.21-9.47-5.21s-7.16,1.9-9.19,4.79c-.17.02-.33.04-.5.04-.72.02-2.7-.68-4.43-1.44.07-.46.14-.91.14-1.39,0-4.96-4.02-8.99-8.99-8.99S0,32.17,0,37.13s4.02,8.99,8.99,8.99c2.87,0,5.4-1.37,7.05-3.47,1.81-.13,3.51.37,5.02,1.04-.21.86-.33,1.75-.33,2.67,0,6.21,5.03,11.24,11.24,11.24s11.24-5.03,11.24-11.24c0-.64-.07-1.26-.17-1.87,1.69-1.88,4.1-2.76,6.11-3.34,2.3,2.73,5.74,4.47,9.6,4.47.87,0,1.72-.09,2.54-.26.66.65,1.29,1.32,1.81,2.05.79,1.11,1.25,2.36.98,3.08-3.31,1.95-5.54,5.55-5.54,9.67,0,5.38,3.79,9.88,8.85,10.98.18.5.34,1,.45,1.5.15.68-.01,2.46-.3,4.22-3.65.99-6.35,4.29-6.35,8.26,0,4.74,3.85,8.59,8.59,8.59s8.59-3.85,8.59-8.59c0-4.16-2.96-7.63-6.9-8.42-.06-2.05.39-3.99.84-5.6,4.86-1.12,8.5-5.39,8.68-10.55.62-.63,1.27-1.23,1.98-1.74.89-.64,4.62-1.62,6.83-1.92,1.57,2.02,4,3.34,6.75,3.34,4.74,0,8.59-3.85,8.59-8.59s-3.85-8.59-8.59-8.59Z"/>
    </g>
  </g>
</svg>