<?xml version="1.0" encoding="UTF-8"?>
<svg id="Layer_2" data-name="Layer 2" xmlns="http://www.w3.org/2000/svg" viewBox="0 0 117 117">

  <g id="Layer_1-2" data-name="Layer 1">
    <g>
      <circle class="cls-2" fill="#fff" cx="58.5" cy="58.5" r="58.5"/>
      <path class="cls-1" fill="#ff8100" stroke-width="0px" d="m87.81,55.8c-3.38,0-6.12,2.74-6.12,6.12,0,.12.03.23.04.35-1.76,1.57-4.01,2.01-5.79,2.23-1.29-2.67-4.02-4.52-7.19-4.52-1.1-1.4-1.92-2.93-2.31-4.3,2.06-1.64,3.38-4.16,3.38-6.99,0-2.64-1.15-5.01-2.98-6.65.03-.29.07-.57.12-.85.11-.56.93-1.98,1.75-3.18.43.09.88.14,1.34.14,3.59,0,6.51-2.91,6.51-6.51s-2.91-6.51-6.51-6.51-6.51,2.91-6.51,6.51c0,2.07.97,3.91,2.48,5.11-.42,1.41-1.2,2.6-1.97,3.59-.99-.38-2.05-.59-3.17-.59-4.93,0-8.93,4-8.93,8.93,0,.87.13,1.71.36,2.51-.27.43-.56.84-.9,1.2-.34.36-1.63.98-2.85,1.46-1.42-2.23-3.91-3.71-6.75-3.71s-5.1,1.35-6.55,3.41c-.12.01-.24.03-.36.03-.51.02-1.93-.48-3.15-1.03.05-.32.1-.65.1-.99,0-3.54-2.87-6.4-6.4-6.4s-6.4,2.87-6.4,6.4,2.87,6.4,6.4,6.4c2.05,0,3.85-.98,5.02-2.47,1.29-.09,2.5.27,3.57.74-.15.61-.24,1.24-.24,1.9,0,4.42,3.58,8,8,8s8-3.58,8-8c0-.46-.05-.9-.12-1.34,1.2-1.34,2.92-1.97,4.35-2.38,1.64,1.95,4.09,3.19,6.83,3.19.62,0,1.22-.06,1.81-.18.47.46.92.94,1.29,1.46.56.79.89,1.68.7,2.19-2.36,1.39-3.94,3.95-3.94,6.89,0,3.83,2.7,7.04,6.3,7.82.13.35.24.71.32,1.07.11.48,0,1.75-.21,3-2.6.7-4.52,3.06-4.52,5.88,0,3.38,2.74,6.12,6.12,6.12s6.12-2.74,6.12-6.12c0-2.96-2.11-5.43-4.91-5.99-.04-1.46.28-2.84.6-3.99,3.46-.8,6.05-3.84,6.18-7.51.44-.45.91-.88,1.41-1.24.63-.45,3.29-1.15,4.86-1.36,1.12,1.44,2.85,2.38,4.81,2.38,3.38,0,6.12-2.74,6.12-6.12s-2.74-6.12-6.12-6.12Z"/>
    </g>
  </g>
</svg>