<svg width="166" height="40" viewBox="0 0 166 40" fill="none" xmlns="http://www.w3.org/2000/svg">
<g clip-path="url(#clip0_79_605)">
<path d="M27.5113 28.4021V10.3218C27.5113 9.38119 27.7197 8.67574 28.1625 8.20545C28.5793 7.73515 29.1523 7.5 29.8296 7.5C30.5328 7.5 31.1059 7.73515 31.5226 8.20545C31.9655 8.67574 32.1738 9.38119 32.1738 10.3218V28.4021C32.1738 29.3427 31.9655 30.0743 31.5226 30.5446C31.0798 31.0149 30.5328 31.25 29.8296 31.25C29.1523 31.25 28.6053 31.0149 28.1886 30.5446C27.7458 30.0481 27.5113 29.3427 27.5113 28.4021Z" fill="#919191"/>
<path d="M153.555 31.2239C147.043 31.2239 141.73 25.8938 141.73 19.3619C141.73 12.83 147.043 7.5 153.555 7.5C160.067 7.5 165.381 12.83 165.381 19.3619C165.381 25.92 160.093 31.2239 153.555 31.2239ZM153.555 12.3075C149.674 12.3075 146.523 15.4689 146.523 19.3619C146.523 23.2549 149.674 26.4164 153.555 26.4164C157.436 26.4164 160.588 23.2549 160.588 19.3619C160.588 15.495 157.436 12.3075 153.555 12.3075Z" fill="#919191"/>
<path d="M100.496 31.2239C93.9846 31.2239 88.6709 25.8938 88.6709 19.3619C88.6709 12.83 93.9846 7.5 100.496 7.5C107.008 7.5 112.322 12.83 112.322 19.3619C112.322 25.92 107.008 31.2239 100.496 31.2239ZM100.496 12.3075C96.6154 12.3075 93.4636 15.4689 93.4636 19.3619C93.4636 23.2549 96.6154 26.4164 100.496 26.4164C104.378 26.4164 107.529 23.2549 107.529 19.3619C107.529 15.495 104.378 12.3075 100.496 12.3075Z" fill="#919191"/>
<path d="M137.953 19.3619C137.953 16.7492 137.093 14.3193 135.661 12.3597C133.577 9.51183 130.243 7.63064 126.466 7.5C126.336 7.5 126.231 7.5 126.101 7.5H120.162C119.146 7.5 118.417 7.73515 117.974 8.20545C117.531 8.67574 117.297 9.40732 117.297 10.4524V28.2976C117.297 29.3427 117.531 30.0743 117.974 30.5446C118.417 31.0149 119.172 31.25 120.162 31.25H126.101C126.231 31.25 126.336 31.25 126.466 31.25C130.243 31.1455 133.551 29.2643 135.661 26.3903C137.093 24.4046 137.953 21.9747 137.953 19.3619ZM126.961 26.3641C126.388 26.3903 125.763 26.4164 125.111 26.4164H122.012V12.3075H125.111C125.763 12.3075 126.388 12.3075 126.961 12.3597C129.018 12.5949 130.79 13.7445 131.91 15.3644C132.691 16.4879 133.16 17.8727 133.16 19.3619C133.16 20.8512 132.691 22.2098 131.91 23.3333C130.79 25.0055 129.018 26.129 126.961 26.3641Z" fill="#919191"/>
<path d="M81.9766 7.60445C81.117 7.34317 80.1793 7.68283 79.6844 8.44053L72.5474 19.3357L65.4104 8.44053C64.9155 7.68283 63.9778 7.34317 63.1182 7.60445C62.2587 7.86572 61.6596 8.70181 61.6596 9.61627V28.9768C61.6596 30.1264 62.5712 31.0932 63.7173 31.0932C64.8374 31.0932 65.7751 30.1526 65.7751 28.9768V16.514L70.8283 24.2477C70.8283 24.2477 70.8283 24.2477 70.8283 24.2739C70.8283 24.2739 70.8283 24.3 70.8543 24.3C70.8804 24.3522 70.9064 24.4045 70.9585 24.4306C70.9846 24.4568 70.9846 24.4568 71.0106 24.4829C71.0367 24.509 71.0627 24.5613 71.0888 24.5874C71.1148 24.6135 71.1409 24.6396 71.1669 24.6658C71.1929 24.6919 71.219 24.6919 71.219 24.718C71.2711 24.7442 71.2971 24.7703 71.3492 24.8225L71.3753 24.8487C71.4274 24.8748 71.4795 24.9009 71.5055 24.927C71.5316 24.927 71.5316 24.9532 71.5316 24.9532C71.5576 24.9793 71.6097 24.9793 71.6358 25.0054C71.8441 25.1099 72.0525 25.1622 72.2869 25.1883C72.339 25.1883 72.3651 25.1883 72.4172 25.1883C72.4432 25.1883 72.4693 25.1883 72.4953 25.1883C72.5214 25.1883 72.5474 25.1883 72.5735 25.1883C72.6256 25.1883 72.6516 25.1883 72.7037 25.1883C72.9121 25.1622 73.1465 25.1099 73.3549 25.0054C73.3809 24.9793 73.433 24.9793 73.4591 24.9532L73.4851 24.927C73.5372 24.9009 73.5893 24.8748 73.6154 24.8487C73.6414 24.8487 73.6414 24.8225 73.6414 24.8225C73.6935 24.7964 73.7196 24.7703 73.7717 24.718C73.7977 24.6919 73.8238 24.6919 73.8238 24.6658C73.8498 24.6396 73.8758 24.6135 73.9019 24.5874C73.9279 24.5613 73.954 24.5351 73.98 24.4829C74.0061 24.4568 74.0061 24.4568 74.0321 24.4306C74.0582 24.3784 74.1103 24.3522 74.1363 24.3L74.1624 24.2739C74.1624 24.2739 74.1624 24.2739 74.1624 24.2477L79.2156 16.514V28.9768C79.2156 30.1264 80.1272 31.0932 81.2733 31.0932C82.3934 31.0932 83.3311 30.1526 83.3311 28.9768V9.61627C83.4353 8.70181 82.8362 7.86572 81.9766 7.60445Z" fill="#919191"/>
<path d="M54.6788 30.5184H39.3369C38.5294 30.5184 37.6438 30.022 37.3052 29.2382C36.9665 28.4543 36.9144 27.3831 37.6177 26.5209L50.1466 11.9156H39.7797C38.6596 11.9156 37.7219 10.9227 37.7219 9.72085C37.7219 8.51898 38.6336 7.76128 39.7797 7.76128H53.7411C54.5486 7.76128 55.3821 7.89191 56.1115 8.70187C56.7887 9.43344 56.7366 11.0272 56.0073 11.9678L43.8952 26.129H54.6788C55.8249 26.129 56.6324 27.1218 56.6324 28.3237C56.6324 29.5256 55.8249 30.5184 54.6788 30.5184Z" fill="#919191"/>
<path d="M12.2474 31.2239C8.83521 31.2239 5.7616 29.8652 3.54756 27.4092C1.62004 25.2668 0.5 22.4189 0.5 19.5971C0.5 10.7921 7.79331 7.5 12.4037 7.5C16.936 7.5 20.244 9.72085 20.4003 9.82536C21.4162 10.5308 21.7027 11.9156 20.9994 12.9607C20.3222 14.0058 18.9417 14.267 17.9258 13.5877C17.8737 13.5616 15.5034 12.0201 12.4037 12.0201C9.51245 12.0201 5.52717 13.9274 5.52717 19.5971C5.52717 22.8108 7.92355 26.6254 12.2995 26.6254C14.774 26.6254 16.4932 25.9722 17.509 25.319V21.9747H14.1229C12.8986 21.9747 11.9088 20.9557 11.9088 19.7277C11.9088 18.4736 12.8986 17.4807 14.1229 17.4807H19.7752C20.9994 17.4807 21.9892 18.4997 21.9892 19.7277V26.4425C21.9892 27.0434 21.7548 27.6444 21.312 28.0624C19.8273 29.5256 16.5453 31.2239 12.2474 31.2239Z" fill="#919191"/>
</g>
<defs>
<clipPath id="clip0_79_605">
<rect width="165" height="40" fill="white" transform="translate(0.5)"/>
</clipPath>
</defs>
</svg>
