<svg width="46" height="40" viewBox="0 0 46 40" fill="none" xmlns="http://www.w3.org/2000/svg">
<g clip-path="url(#clip0_79_607)">
<path fill-rule="evenodd" clip-rule="evenodd" d="M70.5531 13.1382C68.7216 13.1382 67.2717 13.5185 65.8218 14.3552C65.8218 10.172 65.8218 6.29299 65.9744 5L57.0461 6.59722V7.3578L57.9618 7.50992C59.1828 7.7381 59.5643 8.42262 59.7933 10.0198C60.0222 13.2143 59.9459 30.0232 59.7933 32.8373C62.1589 33.3697 64.6772 33.75 67.1954 33.75C74.216 33.75 78.4131 29.4147 78.4131 22.5694C78.4894 17.0933 75.0554 13.1382 70.5531 13.1382ZM67.5006 32.2288C66.9665 32.2288 66.2797 32.2288 65.8981 32.0767C65.7455 30.2513 65.6692 22.4934 65.7455 15.6481C66.5086 15.42 67.0428 15.2679 67.7296 15.2679C70.6294 15.2679 72.2319 18.6905 72.2319 22.8737C72.2319 28.1978 70.2478 32.2288 67.5006 32.2288Z" fill="#919191"/>
<path fill-rule="evenodd" clip-rule="evenodd" d="M23.7747 5.53228H0.5V6.74921L1.79728 6.90132C3.55242 7.1295 4.16291 8.19431 4.46815 10.7042C4.8497 15.4198 4.69708 24.0144 4.46815 28.1216C4.23922 30.6315 3.55242 31.7724 1.79728 31.9245L0.5 32.1526V33.2175H15.4569V32.1526L13.8543 31.9245C12.0992 31.7724 11.4887 30.6315 11.1835 28.1216C11.0309 26.3722 10.9545 23.6341 10.9545 20.2115L14.1596 20.3636C16.1437 20.3636 17.0594 21.9608 17.4409 24.1665H18.6619V14.7353H17.4409C17.0594 16.941 16.1437 18.5382 14.1596 18.5382L10.9545 18.6903C10.9545 14.2029 11.1072 10.0197 11.1835 7.50979H15.8384C19.425 7.50979 21.2565 9.71548 22.5537 13.6705L23.851 13.2902L23.7747 5.53228Z" fill="#919191"/>
<path fill-rule="evenodd" clip-rule="evenodd" d="M31.2532 12.9101C37.8922 12.9101 41.1735 17.3975 41.1735 23.3301C41.1735 28.9584 37.5106 33.75 30.8716 33.75C24.2326 33.75 20.9512 29.2626 20.9512 23.3301C20.9512 17.6257 24.6904 12.9101 31.2532 12.9101ZM30.8716 14.2031C27.9718 14.2031 27.2087 18.1581 27.2087 23.254C27.2087 28.2739 28.506 32.3049 31.1768 32.3049C34.2293 32.3049 34.9924 28.3499 34.9924 23.254C34.9924 18.3102 33.6951 14.2031 30.8716 14.2031Z" fill="#919191"/>
<path fill-rule="evenodd" clip-rule="evenodd" d="M80.1682 23.4062C80.1682 18.0061 83.6022 12.8341 90.3175 12.8341C95.8882 12.8341 98.4827 16.9412 98.4827 22.3414H86.1967C86.0441 27.2091 88.4098 30.7838 93.2173 30.7838C95.354 30.7838 96.4223 30.2514 97.7196 29.3387L98.2538 30.0233C96.9565 31.8487 94.0567 33.6741 90.3175 33.6741C84.4416 33.7501 80.1682 29.4908 80.1682 23.4062ZM86.2731 20.9723L92.4542 20.8202C92.4542 18.1582 92.0727 14.2031 89.7833 14.2031C87.5703 14.2031 86.4257 17.93 86.2731 20.9723Z" fill="#919191"/>
<path fill-rule="evenodd" clip-rule="evenodd" d="M114.279 13.9749C112.676 13.2904 110.616 12.9101 108.174 12.9101C103.29 12.9101 100.238 15.8003 100.238 19.2229C100.238 22.6456 102.451 24.0907 105.656 25.1555C108.937 26.3724 109.853 27.2851 109.853 28.8063C109.853 30.4035 108.632 31.8486 106.572 31.8486C104.053 31.8486 102.222 30.4035 100.772 26.4485L99.8563 26.6766L100.009 32.4571C101.611 33.1416 104.511 33.674 107.03 33.674C112.219 33.674 115.5 31.012 115.5 26.9809C115.5 24.2428 114.05 22.6456 110.616 21.3526C106.953 19.9075 105.58 18.9948 105.58 17.2454C105.58 15.4961 106.801 14.3552 108.327 14.3552C110.692 14.3552 112.295 15.8003 113.516 19.3751L114.432 19.1469L114.279 13.9749Z" fill="#919191"/>
<path fill-rule="evenodd" clip-rule="evenodd" d="M58.3434 13.4426C56.1304 12.1496 52.1622 12.7581 50.0255 17.5497L50.1782 12.9102L41.3261 14.6595V15.4201L42.2419 15.5722C43.4628 15.7243 43.997 16.3328 44.0733 18.0821C44.3023 21.2766 44.2259 26.7528 44.0733 29.5669C43.9207 31.1642 43.3865 31.9247 42.2419 32.0769L41.3261 32.229V33.2938H53.6121V32.229L52.0096 32.0769C50.7123 31.9247 50.2545 31.1642 50.1782 29.5669C49.9492 27.057 49.9492 22.0372 50.0255 18.9188C50.7123 18.0061 53.6121 17.1694 56.2067 18.9188L58.3434 13.4426Z" fill="#919191"/>
</g>
<defs>
<clipPath id="clip0_79_607">
<rect width="115" height="40" fill="white" transform="translate(0.5)"/>
</clipPath>
</defs>
</svg>
