<svg width="181" height="40" viewBox="0 0 181 40" fill="none" xmlns="http://www.w3.org/2000/svg">
<g clip-path="url(#clip0_79_603)">
<path d="M161.703 31.9149H168.207C168.459 32.7349 169.317 33.5548 170.925 33.5548C173.102 33.5548 173.852 32.2026 173.852 30.2031V28.7789H173.708C172.634 30.0304 171.206 30.9511 169.101 30.9511C164.955 30.9511 161.35 27.887 161.35 21.8955C161.35 16.4076 164.313 12.1279 168.784 12.1279C171.358 12.1279 172.929 13.1637 173.968 14.8036H174.076V12.7033H180.507V29.3112C180.507 32.3752 179.433 34.7632 177.825 36.1945C176.145 37.6906 173.751 38.2948 171.033 38.2948C165.921 38.2948 162.352 36.1874 161.703 31.9149ZM174.141 21.5719C174.141 19.1839 173.001 17.2563 171.033 17.2563C169.137 17.2563 167.926 18.9681 167.926 21.5719C167.926 24.1397 169.144 25.9882 171.033 25.9882C172.994 25.9954 174.141 24.1037 174.141 21.5719ZM154.169 15.976H154.277C155.668 13.3003 157.493 12.3077 159.814 12.3077C160.348 12.3077 160.708 12.3797 160.925 12.4876V18.3711H160.78C156.815 17.6591 154.493 19.5507 154.493 23.8591V31.879H147.737V12.7033H154.169V15.976ZM0.5 5H13.7233C16.2252 5 18.1503 5.60418 19.513 6.71185C21.0488 7.95618 21.8707 9.81189 21.8707 12.02C21.8707 14.5878 20.8325 16.1918 18.6911 17.1916V17.2994C21.4814 18.2273 23.0892 20.7231 23.0892 23.7513C23.0892 26.6355 21.9789 28.8868 20.1619 30.239C18.6262 31.3467 16.629 31.879 13.9829 31.879H0.5V5ZM13.0816 25.9234C14.6895 25.9234 15.8647 24.9596 15.8647 23.1758C15.8647 21.3201 14.5813 20.4282 13.0456 20.4282H7.82546V25.9162H13.0816V25.9234ZM12.3967 15.5157C13.8243 15.5157 14.8625 14.7317 14.8625 13.1637C14.8625 11.6316 13.7882 10.8836 12.3606 10.8836H7.82546V15.5157H12.3967Z" fill="#919191"/>
<path d="M24.3005 5H31.2294V31.879H24.3005V5ZM32.556 22.3199C32.556 16.2637 36.4855 12.1639 42.5637 12.1639C48.6418 12.1639 52.4992 16.2637 52.4992 22.3199C52.4992 28.4193 48.6418 32.4759 42.5637 32.4759C36.4855 32.4831 32.556 28.4193 32.556 22.3199ZM45.6352 22.3199C45.6352 18.9681 44.5608 16.8679 42.4916 16.8679C40.4223 16.8679 39.4201 18.9681 39.4201 22.3199C39.4201 25.7077 40.4223 27.8079 42.4916 27.8079C44.5608 27.8151 45.6352 25.7077 45.6352 22.3199ZM53.2851 22.3199C53.2851 16.2637 57.2146 12.1639 63.2927 12.1639C69.3708 12.1639 73.2282 16.2637 73.2282 22.3199C73.2282 28.4193 69.3708 32.4759 63.2927 32.4759C57.2146 32.4831 53.2851 28.4193 53.2851 22.3199ZM66.3642 22.3199C66.3642 18.9681 65.2899 16.8679 63.2206 16.8679C61.1513 16.8679 60.1491 18.9681 60.1491 22.3199C60.1491 25.7077 61.1513 27.8079 63.2206 27.8079C65.2899 27.8151 66.3642 25.7077 66.3642 22.3199ZM74.5476 12.7033H80.979V15.5876H81.0872C82.3706 13.3435 84.1226 12.1279 86.8769 12.1279C89.3067 12.1279 91.1308 13.3363 92.0609 15.4437H92.1691C93.7409 12.9119 95.7813 12.1279 98.139 12.1279C102.609 12.1279 104.534 15.4078 104.534 19.8241V31.8718H97.7785V21.0396C97.7785 19.076 97.1729 17.7957 95.4569 17.7957C93.7769 17.7957 92.9189 19.3637 92.9189 21.4352V31.879H86.1559V21.0396C86.1559 19.076 85.5502 17.7957 83.8342 17.7957C82.1543 17.7957 81.2963 19.3637 81.2963 21.4352V31.879H74.5476V12.7033ZM112.783 29.3831H112.711V31.879H106.279V5H113.035V14.6957H113.143C114.427 13.0198 116.143 12.1279 118.608 12.1279C123.432 12.1279 126.222 16.4795 126.222 22.248C126.222 28.7717 123.187 32.5119 118.183 32.5119C116.107 32.5191 113.965 31.5193 112.783 29.3831ZM119.358 22.1833C119.358 19.0832 118.219 17.0837 116.179 17.0837C114.109 17.0837 112.783 19.0832 112.783 22.1833C112.783 25.2473 114.102 27.2828 116.179 27.2828C118.248 27.2757 119.358 25.2833 119.358 22.1833ZM127.08 22.2552C127.08 16.2637 131.046 12.0991 136.8 12.0991C139.655 12.0991 141.875 12.991 143.555 14.595C145.769 16.7312 146.771 20.083 146.699 24.039H133.8C134.089 26.4269 135.228 27.6425 137.268 27.6425C138.451 27.6425 139.482 27.1102 139.914 25.8227H146.418C145.279 30.2031 141.883 32.4184 137.059 32.4184C131.082 32.4112 127.08 28.3833 127.08 22.2552ZM133.8 20.2556H139.943C139.835 17.9396 138.552 16.724 136.944 16.724C135.084 16.724 134.045 18.0475 133.8 20.2556Z" fill="#919191"/>
</g>
<defs>
<clipPath id="clip0_79_603">
<rect width="180" height="40" fill="white" transform="translate(0.5)"/>
</clipPath>
</defs>
</svg>
