<svg width="19" height="19" viewBox="0 0 19 19" fill="none" xmlns="http://www.w3.org/2000/svg">
<path d="M16.9259 13.8393C16.954 13.8393 16.9814 13.8422 17.0083 13.8475C17.1855 13.5385 17.3471 13.2143 17.493 12.8755C17.4958 12.8687 17.4988 12.8622 17.5022 12.8557C17.7214 12.3385 17.8869 11.8013 17.9984 11.2447C18.0848 10.8128 18.1381 10.37 18.1584 9.91632H15.5463C15.4989 11.2421 15.103 12.5496 14.3652 13.8393H16.9259ZM16.4705 14.6721H13.8397C13.0413 15.8288 11.9656 16.9713 10.6177 18.0996C10.8291 18.0733 11.0381 18.0396 11.2447 17.9983C11.8085 17.8856 12.3524 17.7174 12.8758 17.4937L12.8755 17.493C13.4076 17.2642 13.9031 16.9964 14.3613 16.6891C14.8204 16.3811 15.2459 16.0312 15.6369 15.6385L15.6385 15.6369C15.9411 15.3356 16.2183 15.0138 16.4705 14.6721ZM8.38215 18.0995C7.03445 16.9713 5.95873 15.8288 5.1601 14.6721H2.5298C2.78199 15.0138 3.05907 15.3356 3.36152 15.6369L3.36306 15.6386C3.75426 16.0314 4.17979 16.3811 4.63871 16.6891C5.09671 16.9964 5.59227 17.2642 6.12449 17.493C6.13114 17.496 6.13779 17.4989 6.14428 17.5022C6.6615 17.7216 7.19866 17.8869 7.75546 17.9983C7.96204 18.0396 8.17078 18.0733 8.38215 18.0995ZM1.98722 13.8393H4.63469C3.89698 12.5496 3.50099 11.2421 3.45383 9.91632H0.841926C0.862027 10.37 0.915372 10.8127 1.00181 11.2445C1.11453 11.8083 1.28291 12.3523 1.5065 12.8757L1.50712 12.8755C1.65169 13.2114 1.81157 13.5328 1.98722 13.8393ZM0.841926 9.08368H3.47006C3.5667 7.78484 3.99764 6.47718 4.76999 5.16072H1.98722C1.81157 5.46718 1.65169 5.78865 1.50712 6.12464C1.50418 6.13129 1.50109 6.13794 1.49799 6.14428C1.27858 6.66165 1.11329 7.19881 1.00181 7.75546C0.915372 8.18732 0.862027 8.63017 0.841926 9.08368ZM2.5298 4.32807H5.30344C6.09326 3.18989 7.13758 2.04505 8.44075 0.89357C8.20943 0.920629 7.98106 0.956657 7.75561 1.00181C7.1917 1.11453 6.64789 1.28291 6.12449 1.5065L6.12464 1.50696C5.59243 1.73596 5.09686 2.00361 4.63886 2.31101C4.17994 2.61902 3.75442 2.96893 3.36322 3.36152L3.36152 3.36306C3.05907 3.66458 2.78199 3.9862 2.5298 4.32807ZM10.5591 0.893415C11.8623 2.0449 12.9066 3.18973 13.6966 4.32792H16.4704C16.2182 3.9862 15.9409 3.66443 15.6383 3.36306L15.6368 3.36152C15.2457 2.96877 14.8202 2.61902 14.3611 2.31101C13.903 2.00361 13.4074 1.73596 12.8754 1.50696C12.8687 1.50418 12.8621 1.50109 12.8557 1.49784C12.3384 1.27858 11.8012 1.11314 11.2445 1.00181C11.0191 0.956657 10.7904 0.920629 10.5591 0.893415ZM17.0128 5.16072H14.2299C15.0024 6.47718 15.4333 7.78484 15.5299 9.08368H18.1582C18.138 8.63001 18.0845 8.18732 17.9982 7.75546C17.8853 7.1917 17.7171 6.64774 17.4935 6.12433L17.4929 6.12464C17.3483 5.78865 17.1886 5.46718 17.0128 5.16072ZM7.59295 0.185239C8.21021 0.0616948 8.84602 0 9.50008 0C10.1541 0 10.7898 0.0616948 11.4071 0.185239C12.0153 0.307083 12.6066 0.489848 13.1811 0.733689C13.1889 0.736472 13.1965 0.73941 13.2039 0.742657C13.7765 0.989128 14.3168 1.28152 14.823 1.62154C15.3283 1.96047 15.7957 2.34471 16.2248 2.77534C16.6554 3.20442 17.0397 3.672 17.3785 4.177C17.7182 4.6834 18.0109 5.2235 18.2573 5.79638L18.2567 5.79653L18.2573 5.79792C18.5058 6.379 18.6917 6.97739 18.8148 7.59295C18.9383 8.21021 18.9998 8.84602 18.9998 9.50008C18.9998 10.1541 18.9383 10.7901 18.8148 11.4074C18.6931 12.0153 18.51 12.6069 18.2663 13.1812C18.2635 13.1889 18.2606 13.1965 18.2572 13.2039C18.0107 13.7768 17.7182 14.3168 17.3783 14.8232C17.0395 15.3283 16.6553 15.7957 16.2247 16.2248C15.7956 16.6554 15.328 17.0398 14.8228 17.3786C14.3168 17.7185 13.7764 18.0112 13.2038 18.2575L13.2035 18.2569L13.2019 18.2575C12.6208 18.5058 12.0223 18.6917 11.4069 18.8148C10.7896 18.9383 10.1538 19 9.49992 19C8.84602 19 8.21005 18.9383 7.5928 18.8148C6.98466 18.6931 6.39323 18.5102 5.81864 18.2665C5.81107 18.2635 5.80349 18.2607 5.79591 18.2573C5.22303 18.011 4.68309 17.7185 4.17669 17.3785C3.67169 17.0397 3.20411 16.6553 2.77503 16.2247C2.3444 15.7956 1.96016 15.328 1.62138 14.823C1.28152 14.3168 0.988973 13.7767 0.742503 13.2038L0.743121 13.2035L0.742503 13.2021C0.494177 12.621 0.30832 12.0226 0.185239 11.4071C0.0618495 10.7899 0 10.1541 0 9.49992C0 8.84602 0.0618495 8.21005 0.185394 7.59279C0.307083 6.98466 0.490002 6.39322 0.733689 5.8188C0.736473 5.81122 0.73941 5.80349 0.742657 5.79607C0.989128 5.22319 1.28152 4.68309 1.62154 4.17669C1.96047 3.67169 2.34471 3.20411 2.77519 2.77503C3.20427 2.3444 3.67185 1.96016 4.17685 1.62123C4.68324 1.28137 5.22334 0.988818 5.79607 0.742348L5.79622 0.742967L5.79761 0.742348C6.37884 0.494332 6.97739 0.308474 7.59295 0.185239ZM9.91648 1.43305V4.32807H12.6728C11.9485 3.37312 11.0309 2.40826 9.91648 1.43305ZM9.91648 5.16072V9.08368H14.6978C14.5897 7.79535 14.1119 6.48785 13.257 5.16072H9.91648ZM9.91648 9.91632V13.8393H13.3971C14.2209 12.5411 14.6633 11.2333 14.7162 9.91632H9.91648ZM9.91648 14.6721V17.6025C11.0986 16.631 12.0661 15.6541 12.8151 14.6721H9.91648ZM9.08368 17.6028V14.6721H6.18495C6.93379 15.6541 7.90127 16.6312 9.08368 17.6028ZM9.08368 13.8393V9.91632H4.284C4.33673 11.2334 4.77895 12.5411 5.6031 13.8393H9.08368ZM9.08368 9.08368V5.16072H5.74319C4.88827 6.48785 4.41049 7.79551 4.30225 9.08368H9.08368ZM9.08368 4.32807V1.43274C7.9693 2.40795 7.05146 3.37312 6.3272 4.32807H9.08368Z" fill="white"/>
</svg>
