<svg width="239" height="40" viewBox="0 0 239 40" fill="none" xmlns="http://www.w3.org/2000/svg">
<g clip-path="url(#clip0_79_601)">
<path d="M89.5994 15.6197V30.4764H84.1745V15.6197H78.6877V10.8897H95.0708V15.6197H89.5994Z" fill="#919191"/>
<path d="M107.749 24.5682H99.1317C99.3022 26.1965 100.248 26.9099 101.627 26.9099C102.914 26.9099 103.983 26.6308 105.425 25.8709L107.346 29.0965C105.533 30.1666 103.658 30.7714 101.364 30.7714C96.9462 30.7714 94.5128 27.6388 94.5128 23.1259C94.5128 18.0548 97.3647 15.4649 101.224 15.4649C105.254 15.4649 107.765 18.1168 107.765 23.5757C107.765 24.0099 107.765 24.3201 107.749 24.5682ZM101.085 19.2024C99.9377 19.2024 99.3022 19.9933 99.1317 21.4356H103.332C103.069 19.9468 102.573 19.2024 101.085 19.2024Z" fill="#919191"/>
<path d="M117.111 30.7866C112.802 30.7866 110.229 28.0416 110.229 23.0945C110.229 18.5817 112.523 15.4801 117.22 15.4801C119.994 15.4801 121.575 16.7673 122.862 18.8298L119.39 21.4662C118.692 20.179 118.212 19.5587 117.127 19.5587C115.84 19.5587 115.189 20.8459 115.189 23.1721C115.189 25.4983 115.887 26.6924 117.266 26.6924C118.212 26.6924 118.894 26.1651 119.808 24.7849L123.001 27.2817C121.296 29.794 119.715 30.7866 117.111 30.7866Z" fill="#919191"/>
<path d="M134.269 30.4766V22.1332C134.269 20.2257 133.634 19.7295 132.595 19.7295C131.526 19.7295 130.89 20.2257 130.89 22.0867V30.4766H125.853V12.084L130.89 10.0679V16.7674C131.82 16.0696 132.843 15.4803 134.579 15.4803C137.803 15.4803 139.338 17.6359 139.338 21.4974V30.4766H134.269Z" fill="#919191"/>
<path d="M151.381 30.7868C145.569 30.7868 142.453 26.4755 142.453 20.691C142.453 14.3947 146.142 10.5952 151.396 10.5952C156.201 10.5952 158.108 12.6733 159.456 16.3643L154.543 18.2717C153.845 16.4573 153.179 15.3097 151.381 15.3097C149.118 15.3097 148.142 17.5739 148.142 20.6755C148.142 23.6686 149.087 26.0413 151.443 26.0413C153.148 26.0413 153.876 25.1108 154.93 23.2654L159.518 25.7001C158.216 28.29 156.031 30.7868 151.381 30.7868Z" fill="#919191"/>
<path d="M171.902 21.3269C171.267 20.6291 170.538 20.1018 169.562 20.1018C168.338 20.1018 167.578 20.6911 167.578 22.4745V30.4767H162.541V15.7906H167.578V16.8606C168.446 16.0232 169.423 15.4959 170.709 15.4959C171.778 15.4959 172.491 15.744 173.08 16.1162L171.902 21.3269Z" fill="#919191"/>
<path d="M183.868 30.4766V29.4996C182.969 30.1975 181.915 30.7868 180.21 30.7868C176.986 30.7868 175.452 28.6312 175.452 24.7697V15.7905H180.52V24.1338C180.52 26.0413 181.156 26.5376 182.194 26.5376C183.233 26.5376 183.868 26.0413 183.868 24.1803V15.7905H188.937V30.4766H183.868Z" fill="#919191"/>
<path d="M200.98 30.4764V22.1331C200.98 20.2256 200.344 19.7293 199.306 19.7293C198.236 19.7293 197.601 20.2256 197.601 22.0865V30.4764H192.563V15.7902H197.601V16.7673C198.531 16.0694 199.554 15.4801 201.29 15.4801C204.514 15.4801 206.048 17.6357 206.048 21.4972V30.4764H200.98Z" fill="#919191"/>
<path d="M215.859 30.7866C211.551 30.7866 208.978 28.0416 208.978 23.0945C208.978 18.5817 211.272 15.4801 215.968 15.4801C218.742 15.4801 220.323 16.7673 221.61 18.8298L218.138 21.4662C217.44 20.179 216.96 19.5587 215.875 19.5587C214.588 19.5587 213.937 20.8459 213.937 23.1721C213.937 25.4983 214.635 26.6924 216.014 26.6924C216.96 26.6924 217.642 26.1651 218.556 24.7849L221.749 27.2817C220.044 29.794 218.463 30.7866 215.859 30.7866Z" fill="#919191"/>
<path d="M233.017 30.4766V22.1332C233.017 20.2257 232.382 19.7295 231.344 19.7295C230.274 19.7295 229.639 20.2257 229.639 22.0867V30.4766H224.601V12.084L229.639 10.0679V16.7674C230.569 16.0696 231.592 15.4803 233.327 15.4803C236.551 15.4803 238.086 17.6359 238.086 21.4974V30.4766H233.017Z" fill="#919191"/>
<path d="M0.166504 2.5V13.6968H11.3572V36.075H22.5325V13.6968H33.7232V2.5H0.166504Z" fill="#919191"/>
<path d="M44.8984 24.8783V13.6969L33.7232 13.6968L33.7232 36.0751H67.2644V24.8783H44.8984Z" fill="#919191"/>
<path d="M67.2644 2.5H44.8984L44.8984 13.6969L67.2644 13.6968V2.5Z" fill="#919191"/>
</g>
<defs>
<clipPath id="clip0_79_601">
<rect width="238.333" height="40" fill="white" transform="translate(0.166504)"/>
</clipPath>
</defs>
</svg>
