<svg width="275" height="40" viewBox="0 0 275 40" fill="none" xmlns="http://www.w3.org/2000/svg">
<path fill-rule="evenodd" clip-rule="evenodd" d="M5.15439 14.6436C5.69591 13.177 6.4405 12.0263 7.38817 11.1801C7.51226 11.1237 7.64764 11.1012 7.78303 11.0786C7.91841 11.0673 8.24557 11.056 8.77581 11.056C9.06914 11.056 9.31734 11.0786 9.54297 11.1125C9.7686 11.1576 9.99424 11.2366 10.2312 11.3494C10.4681 11.4735 10.7501 11.6314 11.066 11.8458L7.03843 15.0498L7.9861 15.8056V26.4781C6.95946 25.9817 6.10205 25.1807 5.53797 24.1879C4.74825 22.8228 4.35339 20.9839 4.35339 18.6937C4.34211 17.4528 4.61287 16.099 5.15439 14.6436ZM4.78209 10.5484C5.01901 10.5484 5.32362 10.5935 5.69591 10.6725C6.06821 10.7514 6.40666 10.8304 6.72255 10.9094C4.51133 11.8909 2.79652 13.5042 1.58938 15.7718C0.540178 17.7686 -0.00134334 19.9911 0.00993835 22.2588C0.00993835 25.1581 1.01401 27.6401 3.03343 29.7047C5.05286 31.7692 7.51226 32.8071 10.4004 32.8071C13.187 32.8071 15.5561 31.7354 17.474 29.6031C19.3919 27.4709 20.3621 24.9551 20.3621 22.0557C20.1026 22.6649 19.798 23.1726 19.4709 23.5787C19.0534 24.0751 18.5796 24.5377 18.0719 24.9438C17.6771 25.2822 17.3161 25.5417 17.0002 25.7109C16.6843 25.8802 16.2781 26.072 15.7705 26.2863V12.0488C16.4022 11.7894 16.9099 11.5186 17.2935 11.2366C17.6771 10.9658 18.0945 10.5597 18.5458 10.0294C19.7078 8.7433 20.3508 7.29925 20.4862 5.71981C19.6401 6.27261 18.8842 6.67875 18.2073 6.94951C17.5304 7.20899 16.7745 7.3895 15.9397 7.46847C15.8043 7.46847 15.6238 7.47975 15.3869 7.50232C14.4618 7.50232 13.0854 7.1413 11.2578 6.41928C9.43015 5.69725 7.9861 5.33623 6.92562 5.33623C4.8385 5.33623 3.16881 6.31774 1.90526 8.25819C0.777094 9.99557 0.201727 12.0601 0.201727 14.4631C0.359671 13.7298 0.743248 13.0303 1.35246 12.3647C1.80373 11.8683 2.32269 11.4396 2.89805 11.1012C3.46214 10.7402 4.09391 10.5484 4.78209 10.5484ZM24.0287 32.604L27.4696 28.7683L25.7322 26.9519V16.6743L26.725 16.0087L29.489 18.1071V31.6677C29.489 32.4348 29.4439 33.0892 29.3536 33.6307C29.2747 34.1384 29.0603 34.6235 28.7444 35.0296L27.7742 36.2368C27.3342 36.7783 26.7927 37.207 26.1383 37.5229C27.4583 37.3875 28.5413 37.0942 29.3762 36.6316C30.2223 36.1691 31.091 35.4357 31.9823 34.443C32.6366 33.6984 33.133 32.9651 33.4602 32.2318C33.7986 31.4759 34.013 30.6749 34.1145 29.8626V14.6662L32.9299 14.7452L29.2182 12.2519L26.5332 14.4631L25.6645 13.9893V6.47568L24.8748 4.77215L21.3549 8.21306V27.6965L20.2831 28.9601L24.0287 32.604ZM35.8068 28.2944L42.1696 32.322L48.2166 25.9591L44.9336 28.2944L40.9061 25.4063V22.7213L48.1038 17.3399L43.5234 11.1689L36.2129 16.2682V27.4145L35.8068 28.2944ZM56.9599 8.41613V15.8056C56.4297 15.862 56.001 15.9523 55.6738 16.0877C55.3466 16.2231 54.9969 16.4487 54.6246 16.7646C53.5641 17.5881 53.0452 18.6373 53.0452 19.9234C53.0339 20.3296 53.0903 20.7244 53.2031 21.108C53.5754 20.7921 53.9364 20.5778 54.2862 20.4762C54.6472 20.3747 55.0872 20.3183 55.6174 20.3183C55.8769 20.3183 56.0912 20.3521 56.2492 20.3973C56.4071 20.4537 56.644 20.5552 56.9599 20.7132V27.9786L62.4203 33.4727L67.4406 28.3734L73.4876 33.4727L82.2986 24.9325V10.3115L76.8383 6.12595L72.8107 9.75865L67.3165 6.12595L62.4203 10.2325V7.82948C62.4203 7.03977 61.8562 6.14851 60.7167 5.14445C60.3783 4.90753 60.0511 4.65933 59.7465 4.41114C59.4419 4.16294 59.2614 3.80193 59.2163 3.33938C59.1711 2.96708 59.1486 2.59479 59.1373 2.21121C59.1373 1.31996 59.4419 0.597929 60.0511 0.0789718C59.8255 0.033845 59.5998 0.0112817 59.3742 0C58.1896 0 57.1404 0.496394 56.2379 1.4779C55.3241 2.47069 54.8728 3.56501 54.8728 4.78343C54.8728 4.96394 54.8954 5.22342 54.9518 5.5393C55.1774 6.82542 55.843 7.78436 56.9599 8.41613ZM83.3591 28.4975L88.2553 31.9384L91.8091 28.5765L96.0397 31.5436L99.6724 27.6288H98.4089L96.7956 25.9591V14.3841L95.9269 14.5421L91.8204 11.1012L84.036 16.4713V27.8093L83.3591 28.4975ZM106.938 11.8683C106.441 11.6314 105.968 11.3268 105.539 10.9771L99.0971 15.5236V23.1951L99.695 23.669H103.531L98.5555 32.322C99.3227 31.6677 99.9093 31.2277 100.338 31.0133C100.936 30.72 101.602 30.5733 102.278 30.5733C103.125 30.5733 103.802 30.6749 104.332 30.8667C104.862 31.0585 105.404 31.4082 105.956 31.9159L112.274 26.9406V19.1563L111.8 18.6825H107.57V18.2876L111.326 11.6878C110.932 11.9247 110.616 12.0601 110.379 12.1052C109.995 12.1504 109.612 12.1729 109.228 12.1616H108.393C107.886 12.1729 107.389 12.0714 106.938 11.8683ZM116.956 32.0512L120.431 28.1816L118.693 26.3653V16.0877L119.641 15.4108L122.45 17.543V31.0585C122.461 31.7128 122.416 32.3671 122.315 33.0215C122.225 33.5292 122.01 34.003 121.66 34.4204C121.446 34.6799 121.164 35.0635 120.792 35.5711C120.318 36.1239 119.743 36.5752 119.088 36.9137C120.295 36.8121 121.378 36.5188 122.315 36.0337C123.251 35.5486 124.131 34.8265 124.943 33.8789C125.553 33.1681 126.026 32.4235 126.365 31.6451C126.703 30.8667 126.929 30.0657 127.042 29.2534V14.0683L125.891 14.1924L122.134 11.6991L119.449 13.8765L118.581 13.4026V5.92288L117.825 4.1855L114.271 7.62641V27.155L113.199 28.3734L116.956 32.0512ZM135.966 8.69817L132.412 5.81006L129.524 8.96893L132.525 11.6991L135.966 8.69817ZM130.392 17.622V28.3734L129.637 29.5242H130.979L134.059 32.1302L137.297 29.1631L141.449 32.5251L145.081 28.4975L143.931 27.0422V16.9676L144.878 16.4938L146.977 18.784V28.6555L150.654 31.8595L154.208 27.8319H152.55L151.602 26.2863V15.5349L152.076 14.5421L151.128 14.7452L147.496 11.857L143.942 15.5349L139.79 12.2519L136.349 16.0877H137.692L138.842 17.4302V27.3017L136.552 28.0914L135.086 26.9406V15.8733L135.559 15.1964L131.453 12.1504L128.091 15.7041L129.242 16.0651L130.392 17.622ZM201.456 28.0237L200.316 26.5571V16.4825L201.264 16.0087L203.362 18.2989V28.2155L207.04 31.3743L210.594 27.3468H208.936L207.988 25.8012V15.0498L208.462 14.1021L207.514 14.26L203.881 11.3719L200.328 15.0498L196.176 11.7668L192.735 15.6026H194.078L195.228 16.9451V26.8617L193.807 28.757L198.195 31.6451L201.456 28.0237ZM154.975 28.1027C155.506 28.1027 155.979 28.1703 156.419 28.3057C156.859 28.4411 157.277 28.6667 157.705 28.9939C158.123 29.3211 158.439 29.637 158.631 29.9416C158.822 30.2462 158.992 30.6636 159.127 31.1826L157.074 33.8338L154.896 36.7557C155.449 36.4398 155.923 36.248 156.318 36.1803C156.713 36.1127 157.288 36.0788 158.055 36.0788C158.946 36.1578 159.714 36.3721 160.345 36.7106C160.977 37.049 161.553 37.568 162.083 38.2562C163.346 37.7823 164.813 36.7219 166.494 35.0973C168.175 33.4615 169.01 32.1189 169.01 31.0697C169.01 30.8892 168.818 30.3139 168.434 29.3775C168.051 28.4185 167.859 27.4032 167.859 26.3653V14.0683L162.365 10.6273L155.449 15.5236V27.2227L154.975 28.1027ZM168.615 14.5872H170.905V28.3057L170.352 29.3775H171.695L174.583 31.5887L178.295 27.3581H176.67L175.598 26.2073V14.858L177.934 11.9699H175.598V4.42242L170.894 8.81099V11.8119L168.615 14.5872ZM178.61 28.1027L183.507 31.5774L192.047 25.6094V13.9893L191.178 14.1924L187.06 10.7176L179.276 16.0877V27.437L178.61 28.1027ZM218.728 8.4951V12.1729C218.04 12.1729 217.465 12.2406 216.991 12.3873C216.517 12.5339 216.066 12.816 215.626 13.2334C215.186 13.6508 214.938 14.1472 214.859 14.7C214.78 15.2528 214.734 15.9749 214.734 16.8774C214.734 17.2497 214.723 17.4979 214.689 17.6333C215.265 16.7082 216.077 16.3246 217.104 16.4825C217.792 16.5841 218.333 16.8774 218.728 17.3512V23.4772C217.521 24.1089 216.461 24.9438 215.569 25.9704C214.565 27.155 213.888 28.3734 213.55 29.6482C214.001 29.2985 214.475 28.9826 214.971 28.7232C215.366 28.5201 215.919 28.3283 216.63 28.1139C216.889 28.035 217.194 27.9447 217.544 27.8545C217.882 27.7642 218.277 27.7191 218.728 27.7191V39.531L223.906 35.3004L225.644 36.5639V29.84L227.855 30.5959L235.324 25.4176V8.02127L230.54 4.1855L225.644 8.29203V6.12595L224.696 5.33623V8.81099L223.906 9.36379V5.73109L219.879 2.63991L215.095 7.34437C215.49 7.10746 215.896 6.98336 216.314 6.98336C216.652 6.98336 216.991 7.03977 217.307 7.1413C218.017 7.41206 218.491 7.86333 218.728 8.4951ZM236 28.4975L240.897 31.9384L249.471 25.9704V14.3841L248.602 14.5421L244.45 11.1012L236.666 16.4713V27.8093L236 28.4975ZM258.688 11.6991C258.18 11.4509 257.684 11.1576 257.221 10.8304L250.813 15.3318V23.0033L251.366 23.4772H255.202L250.227 32.1302C250.779 31.6564 251.242 31.3067 251.614 31.0585C252.302 30.6072 253.092 30.3816 253.983 30.3816C254.807 30.3816 255.473 30.4831 256.003 30.6749C256.533 30.878 257.075 31.2164 257.627 31.7241L263.956 26.7489V18.9645L263.483 18.4907H259.252V18.0958L263.009 11.496C262.614 11.7329 262.298 11.8683 262.061 11.9135C261.824 11.9586 261.441 11.9699 260.91 11.9699H260.087C259.545 11.9699 259.083 11.8796 258.688 11.6991ZM264.058 14.779H266.348V28.4975L265.795 29.5693H267.138L269.981 31.7805L273.738 27.5499H272.113L271.041 26.3991V15.061L273.332 12.1729H271.041V4.62549L266.359 9.01406V12.015L264.058 14.779ZM88.7292 15.14L91.8091 17.4302V26.636L90.8163 27.7078L88.7179 25.8915L88.7292 15.14ZM165.253 31.3405C165.885 31.7918 166.201 32.3559 166.201 33.044C166.201 33.3599 166.167 33.5968 166.122 33.7548C165.964 33.9917 165.84 34.1496 165.761 34.2286C165.546 34.443 165.275 34.5783 164.971 34.6235C164.632 34.6799 164.181 34.5107 163.628 34.1271C163.076 33.7435 162.241 33.5517 161.135 33.5517C160.424 33.5517 159.781 33.6194 159.195 33.7548C158.619 33.8902 158.01 34.1158 157.378 34.4317L163.155 27.3129V28.2268C163.155 28.757 163.2 29.1857 163.29 29.5354C163.38 29.8739 163.583 30.2123 163.899 30.5282C164.35 30.799 164.802 31.081 165.253 31.3405ZM160.154 14.6662L163.155 16.8774V25.8125L162.286 26.7601L160.154 24.6279V14.6662ZM40.9061 21.5819V15.8056L43.7942 19.4383L40.9061 21.5819ZM108.619 15.061L105.934 19.8445H103.914V14.6662C104.704 15.1626 105.561 15.4221 106.487 15.4221C107.22 15.4108 107.931 15.298 108.619 15.061ZM183.981 14.7452L187.06 17.0805V26.2863L186.079 27.3581L183.981 25.4966V14.7452ZM104.659 22.7213H107.547V27.8206C107.141 27.674 106.723 27.5611 106.306 27.4822C106.024 27.4483 105.46 27.4258 104.591 27.4258C104.084 27.4145 103.587 27.4709 103.091 27.5837C102.673 27.6852 102.166 27.8657 101.59 28.1027L104.659 22.7213ZM223.906 11.9699L224.696 11.293V33.8563L223.906 33.3825V11.9699ZM225.644 10.7063L228.058 9.16072L229.795 10.4243V25.2822C228.972 24.8084 228.532 24.5602 228.453 24.5264L227.584 24.2443C226.941 24.0864 226.287 23.9284 225.644 23.7705V10.7063ZM14.4618 12.4437C14.7213 12.4437 14.9356 12.4211 15.0936 12.3647V26.7489C14.1008 27.2453 13.0064 27.5047 11.8896 27.5047C11.2352 27.5047 10.5696 27.4258 9.91527 27.2678C9.26093 27.1099 8.74197 26.8955 8.36967 26.636L12.8711 22.1347V12.2519C13.0629 12.3534 13.2659 12.4211 13.4803 12.4324C13.7059 12.4437 13.8526 12.455 13.9315 12.455L14.4618 12.4437ZM241.382 15.14L244.462 17.4302V26.636L243.514 27.7078L241.382 25.8915V15.14ZM62.409 11.3832L63.8756 10.2325L66.9217 13.3124V27.5047L65.692 28.7683L62.409 25.6094V11.3832ZM259.32 15.14C259.658 15.0836 259.997 14.9934 260.301 14.858L257.616 19.6414H255.597V14.4631C256.375 14.9595 257.278 15.219 258.203 15.219C258.609 15.219 258.981 15.1851 259.32 15.14ZM256.353 22.5295H259.241V27.6288C258.835 27.4822 258.417 27.3694 258 27.2904C257.718 27.2453 257.154 27.234 256.274 27.234C255.766 27.2227 255.258 27.2791 254.773 27.3919C254.277 27.5273 253.78 27.6965 253.307 27.9109L256.353 22.5295ZM72.7994 11.3832L74.2322 10.2325L77.3121 13.3124V27.5047L76.0486 28.7683L72.8107 25.6094L72.7994 11.3832Z" fill="#919191"/>
</svg>
