<svg width="61" height="58" viewBox="0 0 61 58" fill="none" xmlns="http://www.w3.org/2000/svg">
<g clip-path="url(#clip0_310_118)">
<path d="M41.9723 56.995H41.9717L33.7608 56.9994C33.8228 56.7933 33.904 56.5802 34.0027 56.3748L34.0043 56.3713C34.2034 55.9527 34.4567 55.5207 34.7438 55.031C34.7813 54.967 34.8194 54.902 34.858 54.836C35.744 53.323 36.1466 51.9179 36.0752 50.6387C36.0027 49.3386 35.4453 48.2669 34.5987 47.445C32.9585 45.8527 30.2719 45.215 27.7741 45.2598C25.2717 45.3048 22.6112 46.0401 20.99 47.5935C20.1555 48.3931 19.5838 49.427 19.5091 50.6721C19.4352 51.9024 19.8539 53.214 20.7556 54.5752L20.7558 54.5756C21.1728 55.2044 21.5576 55.8156 21.8107 56.4033C21.9046 56.6212 21.9731 56.8197 22.0187 57.0007C15.4293 57.005 8.84374 57.005 2.24878 57.005C1.53998 57.005 1 56.4437 1 55.8126V42.6257C1.29083 41.0883 1.80411 40.4886 2.19813 40.2531C2.60404 40.0104 3.15897 39.9886 3.88166 40.2082C4.59564 40.4252 5.31156 40.8313 5.88483 41.1995C6.08351 41.3271 6.24717 41.4381 6.39279 41.5368C6.46013 41.5825 6.52362 41.6256 6.58492 41.6665C6.66438 41.7194 6.77327 41.7912 6.87211 41.8431L6.87564 41.845C6.89287 41.8541 6.93981 41.879 7.00656 41.9048C8.12019 42.6344 9.42668 43.0571 10.8269 43.0571C12.981 43.0571 14.84 41.8524 16.1241 40.2202C17.4102 38.5853 18.2059 36.4234 18.2059 34.272C18.2059 29.9676 14.9761 26.3321 10.8269 26.3321C9.94775 26.3321 8.99372 26.635 8.16852 27.0008C7.32596 27.3743 6.51852 27.8582 5.9063 28.3144C4.36719 29.4568 3.25461 29.6296 2.57979 29.4087C1.96094 29.206 1.30691 28.5294 1 26.9127V18.344C1 17.713 1.53998 17.1517 2.24878 17.1517H15.2004H15.2611L15.3213 17.1444C16.4484 17.007 17.363 16.802 18.084 16.5186C18.8035 16.2357 19.3948 15.8492 19.7857 15.3093C20.6209 14.1559 20.2103 12.8363 19.7535 11.8748C19.5093 11.3607 19.1977 10.8363 18.8889 10.3341C18.802 10.1928 18.7157 10.0538 18.6302 9.91602C18.4025 9.54918 18.1805 9.19162 17.9694 8.82586C17.3758 7.79755 17.0145 6.94034 17.0145 6.21908C17.0145 4.87007 17.7231 3.58095 18.9387 2.59938C20.1542 1.61784 21.8176 1 23.5551 1C27.0726 1 29.6827 3.46017 29.6787 6.21763V6.21908C29.6787 7.0195 29.3174 7.91895 28.7526 8.94715C28.5418 9.33091 28.3191 9.7048 28.0916 10.0868C28.0189 10.2089 27.9457 10.3318 27.8722 10.4562C27.5776 10.9548 27.2801 11.4741 27.0494 11.9811C26.6157 12.9341 26.2388 14.2347 27.0921 15.3609C27.4878 15.8832 28.0759 16.2565 28.7872 16.5309C29.5008 16.8061 30.4035 17.0069 31.5142 17.1442L31.5752 17.1517H31.6368H41.9673C42.6761 17.1517 43.2161 17.713 43.2161 18.344V27.0239V27.092L43.2253 27.1595C43.5566 29.5803 44.6893 31.7568 46.8452 32.0748L46.8469 32.075C48.0462 32.2498 49.091 31.9469 50.0021 31.5317C50.4537 31.3259 50.888 31.0852 51.2948 30.8536C51.384 30.8028 51.4716 30.7526 51.5579 30.7032C51.8759 30.521 52.1775 30.3483 52.4885 30.1855C53.2709 29.7759 53.9965 29.4944 54.7744 29.4512C55.5326 29.409 56.4352 29.5889 57.5705 30.272L58.086 29.4151L57.5705 30.272C60.2242 31.8685 60.6084 35.3725 59.2108 38.1672C58.5293 39.53 57.4757 40.5811 56.2266 41.048C55.0109 41.5024 53.4782 41.4541 51.6852 40.3792C51.5865 40.32 51.4873 40.2603 51.3876 40.2003C50.6658 39.7659 49.9211 39.3176 49.2183 38.9785C48.4327 38.5995 47.5464 38.2774 46.6678 38.3336C45.692 38.3961 44.8832 38.9107 44.3081 39.8533C43.7699 40.7355 43.4264 41.9993 43.228 43.6691L43.221 43.7279V43.7871V55.8027C43.221 56.4302 42.6796 56.995 41.9723 56.995Z" stroke="white" stroke-width="2"/>
</g>
<defs>
<clipPath id="clip0_310_118">
<rect width="61" height="58" fill="white"/>
</clipPath>
</defs>
</svg>
