<svg width="37" height="55" viewBox="0 0 37 55" fill="none" xmlns="http://www.w3.org/2000/svg">
<path d="M11.3676 43.5723C10.7521 43.5858 10.2108 43.1364 10.1242 42.5117C10.0339 41.8622 10.4704 41.2608 11.1069 41.137C10.4017 37.1522 8.4834 34.9559 6.45533 32.6353C4.87669 30.8284 3.23747 28.9523 1.94545 26.1893C0.672367 23.4668 -0.024747 20.6567 0.000671459 17.7374C0.0255491 14.817 0.771337 11.8095 2.38189 8.69815C2.39217 8.67868 2.40298 8.65921 2.4138 8.64028H2.41326C4.52894 5.06007 7.48451 2.67073 10.7786 1.32626C13.5428 0.198114 16.5448 -0.186949 19.4863 0.0823781C22.4187 0.351165 25.2888 1.27055 27.796 2.75294C30.9895 4.64039 33.6098 7.44075 35.0532 10.9766C35.8342 12.8906 36.3626 15.029 36.4264 17.3669C36.4907 19.6989 36.0905 22.2121 35.0159 24.8729C33.5757 28.4375 31.6737 30.65 29.8928 32.7218C28.2535 34.6293 26.7268 36.4064 25.881 39.1246C26.3601 39.2387 26.7436 39.6356 26.815 40.1521C26.9085 40.8249 26.4386 41.4452 25.7663 41.5382L25.351 41.5966C25.2747 42.1888 25.2255 42.8205 25.205 43.4976L25.3412 43.4782C26.0135 43.3851 26.6343 43.8551 26.7274 44.5273C26.8204 45.1996 26.3509 45.8204 25.6787 45.9135L25.258 45.9729C25.2639 46.0541 25.2688 46.1357 25.2747 46.2185L25.2753 46.2179C25.3126 46.6939 25.3164 47.153 25.2899 47.5943L25.3607 47.5857C26.0356 47.5035 26.65 47.9832 26.7322 48.6586C26.8144 49.3336 26.3342 49.948 25.6592 50.0302L24.7496 50.1416C24.1022 51.8246 22.9454 53.1031 21.5771 53.8976C20.6372 54.4438 19.594 54.7596 18.5432 54.8223C17.4761 54.8856 16.4026 54.6893 15.4189 54.2085C14.2918 53.6574 13.2864 52.7429 12.5563 51.4293C12.2042 51.2492 11.9452 50.903 11.8933 50.4812C11.8732 50.3146 11.8868 50.1524 11.9295 50.0004C11.7186 49.3752 11.559 48.6857 11.4595 47.9307L11.4222 47.9361C10.75 48.0291 10.1291 47.5597 10.0361 46.8869C9.94307 46.2152 10.4125 45.5944 11.0847 45.5008L11.3779 45.4597C11.3984 44.794 11.3941 44.1655 11.3676 43.5723ZM13.3956 40.8098L23.3965 39.3901C24.2574 35.7661 26.1292 33.5877 28.154 31.2319C29.8176 29.2968 31.5947 27.2293 32.8916 24.0195C33.8424 21.6659 34.1966 19.461 34.1414 17.428C34.0857 15.401 33.6195 13.5271 32.9295 11.836C31.6861 8.79009 29.4114 6.36722 26.6316 4.72422C24.4083 3.41003 21.8697 2.59556 19.2808 2.35868C16.6995 2.12234 14.0652 2.46036 11.6402 3.45059C8.79545 4.61173 6.23738 6.68198 4.39644 9.7879C2.96922 12.5574 2.30942 15.2069 2.28725 17.7547C2.26508 20.3165 2.88485 22.8005 4.01679 25.2207C5.17035 27.6873 6.70194 29.4407 8.17676 31.1286C10.4687 33.7521 12.6353 36.2334 13.3956 40.8098ZM22.9914 41.9309L13.6515 43.2564C13.6807 43.8502 13.6899 44.4749 13.6769 45.1331L22.8994 43.8237C22.9065 43.1558 22.9373 42.5263 22.9914 41.9309ZM13.7234 47.6089C13.7883 48.107 13.884 48.564 14.0073 48.981L22.9595 47.8799C23.0173 47.4159 23.0303 46.921 22.9892 46.3964V46.3872L22.9827 46.2942L13.7234 47.6089ZM15.2847 51.306C15.6303 51.6683 16.0148 51.9474 16.4226 52.1464C17.0467 52.4514 17.7292 52.5758 18.4085 52.5358C19.1029 52.4947 19.7979 52.2827 20.429 51.916C21.0223 51.5715 21.5577 51.0891 21.9849 50.4817L15.2847 51.306Z" fill="white"/>
</svg>
