<svg width="52" height="50" viewBox="0 0 52 50" fill="none" xmlns="http://www.w3.org/2000/svg">
<g clip-path="url(#clip0_310_115)">
<path d="M6.53388 35.5224C7.06708 35.1168 7.83726 35.212 8.25198 35.7334C8.66669 36.2549 8.56936 37.0082 8.03616 37.4138L2.49254 41.6229L2.45022 47.1646L9.12795 46.8004L12.8223 41.06C13.182 40.5013 13.9352 40.3357 14.5065 40.6875C15.0778 41.0393 15.2471 41.776 14.8874 42.3347L10.8799 48.5635C10.681 48.8987 10.3171 49.1305 9.88967 49.1553L1.28648 49.623C1.26109 49.623 1.23993 49.623 1.21454 49.623C0.541691 49.6189 -0.00420733 49.085 2.44382e-05 48.4269L0.0550375 41.1221C0.0254151 40.7372 0.190454 40.344 0.524764 40.0874L6.53388 35.5224ZM17.0456 22.2702C19.8343 14.121 23.5879 8.34746 28.8734 4.70538C34.362 0.930856 41.4121 -0.501145 50.6501 0.152775C51.2891 0.198301 51.7757 0.711503 51.7884 1.32404C52.6813 11.108 50.7432 18.0445 46.6045 23.3007C42.6182 28.3541 36.6472 31.7727 29.2289 34.6408V44.1889C29.2289 44.6565 28.9538 45.0621 28.5518 45.2608L21.0023 49.8217C20.431 50.1693 19.6778 49.9955 19.3223 49.4326C19.2292 49.2836 19.1699 49.1222 19.1488 48.9608C17.4772 36.466 15.6999 35.8659 5.25588 32.3314C4.01174 31.9093 2.66181 31.454 1.75198 31.1395C1.11721 30.9201 0.782902 30.2372 1.00719 29.6123C1.05374 29.4798 1.12568 29.3598 1.21031 29.2563L6.18687 22.3157C6.43655 21.968 6.83857 21.7901 7.24482 21.8066L17.0456 22.2702ZM35.8347 10.6445C37.2565 10.6445 38.543 11.2073 39.474 12.1178C40.405 13.0284 40.9805 14.2865 40.9805 15.6772C40.9805 17.0678 40.405 18.3259 39.474 19.2365C38.543 20.147 37.2565 20.7098 35.8347 20.7098C34.4128 20.7098 33.1263 20.147 32.1953 19.2365C31.2643 18.3259 30.6888 17.0678 30.6888 15.6772C30.6888 14.2865 31.2643 13.0284 32.1953 12.1178C33.1263 11.2073 34.4128 10.6445 35.8347 10.6445ZM38.2891 13.2767C37.6628 12.6642 36.7953 12.2834 35.8347 12.2834C34.8783 12.2834 34.0108 12.6642 33.3802 13.2767C32.7539 13.8892 32.3646 14.7377 32.3646 15.6772C32.3646 16.6125 32.7539 17.4609 33.3802 18.0776C34.0065 18.6901 34.874 19.0709 35.8347 19.0709C36.791 19.0709 37.6586 18.6901 38.2891 18.0776C38.9154 17.4651 39.3047 16.6166 39.3047 15.6772C39.3047 14.7377 38.9154 13.8892 38.2891 13.2767ZM30.2783 6.663C25.2806 10.1064 21.7386 15.7434 19.0938 23.8098C18.9499 24.3437 18.4421 24.7286 17.8539 24.6996L7.79495 24.2195L4.07945 29.4053C4.86656 29.6743 5.4717 29.8813 6.05146 30.0758C17.1895 33.842 19.5043 34.6243 21.3155 46.8252L26.7787 43.5267V33.8296H26.7829C26.7829 33.3495 27.0834 32.8984 27.5658 32.7163C34.9545 29.9351 40.8578 26.6738 44.6664 21.8397C48.3015 17.225 50.0619 11.0997 49.4313 2.4746C41.2936 2.0359 35.0772 3.36443 30.2783 6.663Z" fill="white"/>
</g>
<defs>
<clipPath id="clip0_310_115">
<rect width="52" height="50" fill="white"/>
</clipPath>
</defs>
</svg>
