<svg width="66" height="55" viewBox="0 0 66 55" fill="none" xmlns="http://www.w3.org/2000/svg">
<g clip-path="url(#clip0_310_100)">
<path d="M29.7347 27.8227C29.4747 27.9741 29.1772 28.0072 28.9065 27.9378C28.6358 27.868 28.3919 27.6952 28.2388 27.4377C28.0863 27.1796 28.053 26.8831 28.1234 26.6149C28.1932 26.3467 28.3667 26.1041 28.6261 25.9527L48.0014 14.4587L49.7175 9.14737C49.7599 9.01567 49.8249 8.89729 49.9071 8.79598C49.993 8.69041 50.0972 8.60296 50.2127 8.53631L60.0924 2.87144C60.3545 2.72107 60.6542 2.69014 60.9244 2.76213C61.1956 2.83411 61.4389 3.00901 61.5904 3.26922C61.6666 3.40039 61.7123 3.53956 61.7295 3.67979C61.7472 3.82376 61.7359 3.96879 61.6973 4.10636L60.8191 8.53151L65.2761 10.1248C65.5602 10.2261 65.7772 10.433 65.8959 10.6841C66.0151 10.9352 66.0377 11.2322 65.9356 11.5143C65.8905 11.6385 65.8255 11.7489 65.7455 11.8438C65.6923 11.9068 65.6322 11.9638 65.5666 12.0123L65.5725 12.0214L65.4533 12.0896L55.5726 17.7529C55.4308 17.834 55.2777 17.8804 55.1241 17.8948C54.9645 17.9091 54.805 17.8889 54.6573 17.8366L49.1014 16.333L29.7358 27.8221L29.7347 27.8227ZM34.8695 0.942801C37.3714 1.60879 39.7014 2.59417 41.8262 3.84349C44.0219 5.1344 45.9996 6.70685 47.7221 8.49952C47.8005 8.58056 47.7968 8.7096 47.7146 8.78692C47.7092 8.79225 47.7033 8.79758 47.6974 8.80185L46.1548 9.95999C46.0689 10.0245 45.9469 10.0112 45.8771 9.9312C44.3125 8.33262 42.5239 6.93027 40.5436 5.77746C38.6245 4.65984 36.5222 3.77684 34.2663 3.17644C30.9475 2.29397 27.6061 2.10734 24.3995 2.52645C21.0684 2.96208 17.8827 4.05144 15.0183 5.69321C12.1534 7.33551 9.61012 9.52969 7.56479 12.1755C5.59573 14.7227 4.08805 17.6884 3.19913 20.9831C2.31021 24.2779 2.12222 27.595 2.54439 30.7777C2.98321 34.0837 4.08053 37.2472 5.73484 40.0909L5.74021 40.1015C7.39345 42.9409 9.60153 45.4625 12.264 47.4908C14.8293 49.4456 17.8167 50.9428 21.135 51.8253C24.4533 52.7078 27.7946 52.8944 31.0007 52.4753C34.3308 52.0397 37.5169 50.9503 40.3819 49.308C43.2469 47.6662 45.7906 45.4715 47.836 42.8263C49.805 40.2791 51.3132 37.3128 52.2016 34.0192C52.7941 31.825 53.0755 29.6217 53.0723 27.4558C53.0696 25.2211 52.764 23.0221 52.1844 20.9111C52.1565 20.8098 52.2113 20.7059 52.3074 20.668L54.0745 19.8906C54.1782 19.8453 54.2996 19.8922 54.3447 19.9946C54.3501 20.0063 54.3544 20.018 54.3565 20.0297C55.0247 22.37 55.384 24.8148 55.4007 27.306C55.4168 29.7198 55.1106 32.1748 54.4516 34.6164C53.4805 38.2129 51.8342 41.4511 49.6842 44.2323C47.4509 47.1218 44.674 49.5176 41.5474 51.3102L41.5362 51.3166C38.4118 53.105 34.9372 54.2925 31.3047 54.7671C27.8027 55.2251 24.1546 55.0219 20.5329 54.0584C16.9106 53.0949 13.6492 51.4606 10.8471 49.3261C7.93755 47.109 5.52376 44.3523 3.71798 41.2479C1.91274 38.1425 0.71444 34.6894 0.235335 31.0779C-0.225509 27.6014 -0.0208687 23.9798 0.949696 20.3843C1.92026 16.7878 3.56705 13.5496 5.71658 10.7683C7.9499 7.87885 10.7268 5.48259 13.8533 3.69046C16.9809 1.89832 20.4593 0.709253 24.0966 0.233626C27.5986 -0.223872 31.2472 -0.0207172 34.8695 0.942801ZM29.9861 19.3958C30.3389 19.4939 30.6816 19.6128 31.013 19.7519C31.3536 19.8948 31.6812 20.058 31.9938 20.2398C32.091 20.2964 32.1238 20.4206 32.0668 20.5176C32.0529 20.5416 32.0346 20.5614 32.0137 20.5768L30.3126 21.8544C30.2493 21.9019 30.1671 21.9072 30.0999 21.8752C29.9802 21.8245 29.8588 21.7782 29.7379 21.736C29.6165 21.6934 29.4903 21.6544 29.3598 21.6177L29.3002 21.6043L29.2927 21.6022C28.4875 21.3884 27.677 21.3431 26.9003 21.4444C26.0931 21.5499 25.3207 21.8144 24.6262 22.2122C23.9317 22.6105 23.3146 23.1426 22.8188 23.7841C22.3413 24.4016 21.9756 25.1209 21.7596 25.9196C21.5442 26.7189 21.4986 27.5235 21.6006 28.2951C21.707 29.0965 21.9729 29.8633 22.3741 30.5533C22.7753 31.2427 23.3114 31.8548 23.957 32.347C24.5795 32.8216 25.304 33.1841 26.1081 33.3985C26.1183 33.4012 26.1291 33.4049 26.1382 33.4092C26.9326 33.616 27.7323 33.6582 28.4993 33.5574C29.3066 33.4513 30.0795 33.1868 30.7745 32.7885C31.4706 32.3897 32.0878 31.857 32.5835 31.2171L32.583 31.2166C33.061 30.5997 33.4263 29.8814 33.6427 29.0843L33.6782 28.944C33.6948 28.8795 33.741 28.8294 33.7996 28.8059L35.8712 27.8947C35.9749 27.8493 36.0957 27.8963 36.1419 27.9986C36.1559 28.0312 36.1613 28.0653 36.158 28.0983C36.1392 28.3607 36.1065 28.6252 36.0619 28.8902C36.0168 29.153 35.9598 29.4154 35.8895 29.6761L35.8889 29.6772L35.8879 29.6825L35.8852 29.6916C35.5876 30.7884 35.0849 31.7765 34.4285 32.6253C33.7453 33.5099 32.8956 34.2431 31.9395 34.7918L31.9283 34.7982C30.9744 35.3426 29.9141 35.7041 28.8055 35.8491C27.7425 35.9878 26.6355 35.9275 25.5372 35.6396C25.5264 35.6385 25.5157 35.6364 25.5055 35.6337C24.3969 35.3389 23.3973 34.8382 22.5395 34.1845C21.6484 33.5057 20.9088 32.6616 20.3562 31.7098C19.8035 30.7591 19.4361 29.7012 19.29 28.5964C19.1487 27.531 19.211 26.4219 19.5081 25.3214C19.8051 24.2208 20.3094 23.229 20.9679 22.3775C21.6517 21.4923 22.5025 20.7586 23.4601 20.21L23.4714 20.2036C24.4259 19.6586 25.4872 19.2966 26.5969 19.1515C27.6695 19.0113 28.7867 19.0732 29.8948 19.368L29.9039 19.3707C29.9179 19.3744 29.9307 19.3782 29.9415 19.3819C29.9576 19.3856 29.9726 19.3904 29.9861 19.3958ZM32.4122 10.0442C33.8689 10.4319 35.2374 10.9843 36.5018 11.6764C37.8054 12.3898 38.9978 13.2515 40.0645 14.2326C40.1472 14.3094 40.152 14.4379 40.0752 14.52C40.0666 14.5286 40.0586 14.5366 40.0489 14.5435L38.4902 15.7139C38.4069 15.7763 38.2915 15.7662 38.2206 15.6942C37.3177 14.8997 36.3154 14.2017 35.2267 13.6205C34.1659 13.0548 33.0234 12.6005 31.8101 12.2779C29.7331 11.7255 27.6416 11.6087 25.6349 11.871C23.5514 12.1435 21.5577 12.825 19.7648 13.8525L19.754 13.8578C17.966 14.8842 16.3783 16.2556 15.1 17.9086C13.8678 19.5024 12.9241 21.359 12.3682 23.4205C11.8117 25.4824 11.6941 27.5582 11.9578 29.5498C12.2323 31.6192 12.9193 33.599 13.9538 35.3783C14.9888 37.1577 16.3718 38.7381 18.0396 40.0082C19.6456 41.2319 21.5152 42.1688 23.5917 42.7212C25.6682 43.2742 27.7597 43.3909 29.7653 43.1286C31.8499 42.8556 33.8442 42.1741 35.637 41.1466C37.4299 40.1186 39.0214 38.7456 40.3013 37.0905C41.5329 35.4967 42.4772 33.6406 43.0331 31.5792C43.3387 30.4472 43.5122 29.3125 43.5622 28.1911C43.6143 27.0367 43.5358 25.894 43.3387 24.7801C43.3221 24.6836 43.3763 24.5914 43.4639 24.5562L45.2616 23.7654C45.3647 23.7201 45.4861 23.767 45.5318 23.8694C45.5403 23.8881 45.5446 23.9067 45.5473 23.9254C45.8213 25.268 45.9432 26.6517 45.8986 28.053C45.8556 29.4196 45.6547 30.8023 45.2836 32.1774C44.6455 34.5412 43.5632 36.6692 42.1501 38.4976C40.6827 40.3959 38.857 41.971 36.801 43.1494L36.8015 43.1499C34.746 44.3278 32.4589 45.11 30.0682 45.4225C27.7662 45.7232 25.3685 45.5899 22.9885 44.957C20.6075 44.3235 18.4639 43.2486 16.6216 41.8457C14.7089 40.3884 13.1223 38.5765 11.9358 36.5365L11.9294 36.5247C10.7461 34.4873 9.96085 32.2212 9.64664 29.8521C9.34371 27.5667 9.47799 25.1865 10.1161 22.8233C10.7542 20.46 11.8359 18.3315 13.2496 16.5031C14.7175 14.6038 16.5426 13.0286 18.5982 11.8508L18.6095 11.8444C20.6623 10.6697 22.9445 9.89014 25.3304 9.57874C27.634 9.27748 30.0323 9.41131 32.4122 10.0442ZM58.4912 9.0274L59.1019 5.95288L51.6726 10.2111L50.3164 14.4102L54.8695 15.6425L62.3144 11.3751L59.1949 10.2591C58.9424 10.1695 58.7388 9.99252 58.6132 9.77177C58.488 9.55368 58.4386 9.29187 58.4912 9.0274Z" fill="white"/>
</g>
<defs>
<clipPath id="clip0_310_100">
<rect width="66" height="55" fill="white"/>
</clipPath>
</defs>
</svg>
