<svg width="48" height="49" viewBox="0 0 48 49" fill="none" xmlns="http://www.w3.org/2000/svg">
<path d="M19.2679 0C24.5886 0 29.4049 2.15652 32.8917 5.64331C36.3785 9.13011 38.535 13.9468 38.535 19.2675C38.535 24.3753 36.5475 29.0177 33.3044 32.4658C33.3634 32.5093 33.4204 32.5575 33.4743 32.6109L47.3453 46.4628C47.9263 47.0406 47.9295 47.9809 47.3509 48.5623C46.773 49.1437 45.8328 49.1461 45.2518 48.5683L31.3807 34.7164C31.2926 34.6287 31.2181 34.533 31.1562 34.4313C27.8812 37.0021 23.7536 38.5354 19.2675 38.5354C13.9468 38.5354 9.12971 36.3789 5.64291 32.8921C2.15652 29.4053 0 24.5882 0 19.2675C0 13.9468 2.15652 9.13011 5.64331 5.64331C9.13011 2.15692 13.9472 0 19.2679 0ZM30.7375 7.79783C27.8022 4.86253 23.7472 3.04696 19.2679 3.04696C14.7886 3.04696 10.7331 4.86253 7.79783 7.79783C4.86253 10.7331 3.04696 14.7882 3.04696 19.2675C3.04696 23.7468 4.86253 27.8022 7.79783 30.7375C10.7327 33.6728 14.7882 35.4884 19.2679 35.4884C23.7472 35.4884 27.8022 33.6728 30.7375 30.7375C33.6728 27.8026 35.4884 23.7472 35.4884 19.2675C35.4884 14.7882 33.6728 10.7331 30.7375 7.79783Z" fill="white"/>
</svg>
