<svg width="59" height="59" viewBox="0 0 59 59" fill="none" xmlns="http://www.w3.org/2000/svg">
<g clip-path="url(#clip0_310_113)">
<path d="M47.3802 8.62679L47.3667 8.61331C47.0095 8.26231 46.552 8.08807 46.0987 8.09775C45.5808 8.10881 45.1778 8.37616 44.8537 8.6813L41.9022 11.6239C41.5406 11.9836 40.9817 12.0239 40.5758 11.7457C39.86 11.2843 39.0918 10.8706 38.2949 10.5008C37.4126 10.0912 36.4915 9.73661 35.5649 9.43067C35.1242 9.28559 34.8449 8.87593 34.8449 8.43585L34.8445 3.82659C34.8445 2.83281 34.107 2.096 33.1133 2.096H27.3281C26.366 2.096 25.6066 2.86715 25.6066 3.82659V8.04705C25.6066 8.56249 25.2341 8.99128 24.7437 9.07874C22.9815 9.49808 21.252 10.1528 19.6621 11.0219C19.4654 11.129 19.2395 11.1701 19.0178 11.139C18.796 11.108 18.5901 11.0065 18.4304 10.8495C17.3076 9.74341 16.142 8.63831 15.045 7.51178C14.3739 6.83847 13.3653 6.90761 12.6951 7.54324C11.322 8.81831 9.94841 10.2982 8.61239 11.6342C7.93389 12.3254 7.91937 13.3797 8.60858 14.0691L8.66148 14.126L11.6238 17.0978C11.9835 17.4594 12.0237 18.0184 11.7456 18.4242C11.2842 19.1399 10.8704 19.9085 10.5004 20.7058C10.0911 21.5879 9.73627 22.509 9.43067 23.4351C9.2857 23.8758 8.87593 24.1552 8.43585 24.1552L3.82693 24.1557C2.83557 24.1557 2.096 24.895 2.096 25.8867V31.6721C2.096 32.6347 2.86726 33.393 3.82693 33.393H8.04705C8.56249 33.393 8.99128 33.7655 9.07874 34.2558C9.50568 36.0515 10.1769 37.7762 11.0306 39.4111C11.2473 39.8263 11.1571 40.3209 10.8415 40.6345C9.73281 41.7405 8.62921 42.8575 7.51224 43.9544C6.83801 44.6264 6.90726 45.6347 7.54393 46.3058C8.79365 47.6805 10.2817 49.0761 11.6011 50.4108C12.2956 51.0532 13.4089 51.0707 14.103 50.4179L17.0896 47.3844C17.4513 47.0165 18.0187 46.9731 18.4289 47.2574C19.9697 48.2489 21.7 48.997 23.4352 49.5691C23.8759 49.7141 24.1552 50.1238 24.1552 50.5638L24.1557 55.1731C24.1557 56.1617 24.898 56.904 25.8866 56.904H31.6718C32.634 56.904 33.3933 56.1324 33.3933 55.1731V50.9527C33.3933 50.7068 33.4798 50.4688 33.6376 50.2802C33.7954 50.0916 34.0145 49.9644 34.2565 49.921C36.0616 49.4924 37.7676 48.8278 39.4112 47.9695C39.6086 47.8665 39.8338 47.8293 40.0539 47.8633C40.274 47.8973 40.4775 48.0007 40.6346 48.1585L43.9073 51.4396C44.527 52.0993 45.58 52.1485 46.2424 51.5206C46.2923 51.4728 46.334 51.429 46.3817 51.382L50.411 47.3991C50.737 47.0462 50.9019 46.5912 50.9019 46.1357C50.9019 45.6865 50.7415 45.2409 50.4183 44.897L47.3841 41.9104C47.2087 41.7378 47.0998 41.5088 47.0767 41.2638C47.0535 41.0188 47.1175 40.7735 47.2575 40.571C48.2506 39.029 48.9957 37.3027 49.5694 35.5646C49.7144 35.1239 50.1242 34.8446 50.5642 34.8446L55.1731 34.8441C56.1644 34.8441 56.904 34.1052 56.904 33.1134V27.3282C56.904 26.3654 56.133 25.6067 55.1731 25.6067H50.9531C50.4309 25.6067 49.9978 25.2246 49.9181 24.7248C49.6969 23.8359 49.4223 22.9612 49.0958 22.1053C48.7701 21.2511 48.3971 20.4294 47.9778 19.6617C47.8708 19.4651 47.8297 19.2392 47.8607 19.0175C47.8918 18.7957 47.9932 18.5898 48.1501 18.43C49.2556 17.3082 50.3618 16.1378 51.4893 15.0437C52.1615 14.3739 52.092 13.3653 51.4576 12.6962C50.2036 11.3332 48.7051 9.94864 47.3802 8.62679ZM22.2692 41.065C22.3683 41.6908 21.9417 42.2788 21.3158 42.378C20.6901 42.4772 20.1022 42.0505 20.003 41.4248L19.5146 38.4024C19.4192 37.801 19.8097 37.2345 20.3959 37.1033L23.4517 36.4116C24.0699 36.2727 24.6841 36.6612 24.8231 37.2795C24.9621 37.8977 24.5735 38.5119 23.9552 38.6509L23.3635 38.7848C26.1114 40.5143 28.8579 40.9941 31.3255 40.5935C33.2873 40.2749 35.0832 39.4032 36.5693 38.1645C38.0611 36.9209 39.2416 35.3068 39.9662 33.5095C41.0603 30.7957 41.1066 27.6634 39.6029 24.7666C39.3385 24.2534 39.54 23.6228 40.0533 23.3584C40.5664 23.0939 41.1971 23.2954 41.4616 23.8086C43.2677 27.2882 43.2158 31.0414 41.9069 34.2874C41.0544 36.402 39.6638 38.3026 37.9042 39.7692C36.1388 41.2407 34.0013 42.277 31.6611 42.6569C28.6937 43.1388 25.4156 42.572 22.1795 40.5102L22.2692 41.065ZM36.5155 17.5532C36.4896 17.2792 36.5728 17.006 36.747 16.7929C36.9212 16.5798 37.1724 16.444 37.4461 16.4149C37.7198 16.3858 37.994 16.4658 38.2091 16.6375C38.4242 16.8092 38.563 17.0587 38.5953 17.3321L38.9143 20.3204C38.942 20.5813 38.8707 20.8431 38.7144 21.0538C38.5582 21.2646 38.3285 21.4089 38.0708 21.4583L34.9449 22.0589C34.3774 22.1672 33.8292 21.7952 33.7208 21.2278C33.6124 20.6604 33.9845 20.1121 34.5519 20.0038L35.3394 19.8526C33.2026 18.5237 30.7324 18.0767 28.3447 18.3546C26.3607 18.5857 24.4383 19.3135 22.8126 20.4488C21.1949 21.5782 19.8701 23.1091 19.0707 24.951C17.9637 27.5028 17.858 30.6791 19.3655 34.2556C19.5893 34.7868 19.34 35.3993 18.8087 35.623C18.2774 35.8468 17.665 35.5975 17.4412 35.0663C15.6892 30.9099 15.8344 27.1672 17.1547 24.124C18.1153 21.9105 19.6947 20.0799 21.6173 18.7375C23.5313 17.401 25.7863 16.545 28.1073 16.2748C30.9937 15.9388 33.991 16.5029 36.5807 18.1646L36.5155 17.5532ZM48.8362 7.12748C50.2145 8.49335 51.6189 9.86729 52.9723 11.2552C54.3858 12.7457 54.4394 15.058 52.9625 16.5263C52.0271 17.4618 51.102 18.4119 50.173 19.3544C50.4991 20.0081 50.7927 20.6775 51.0527 21.3602C51.321 22.0658 51.5564 22.7834 51.7583 23.5107H55.1731C57.2794 23.5107 59 25.2192 59 27.3282V33.1134C59 35.2549 57.3167 36.9401 55.1731 36.9401H51.3109C50.8078 38.3425 50.1962 39.7173 49.4427 41.004L51.9285 43.4512C52.6437 44.206 52.9979 45.1716 52.9979 46.1357C52.9979 47.1026 52.6415 48.0728 51.9366 48.8294L47.8678 52.8518C47.8038 52.9152 47.7431 52.9739 47.6793 53.0394C46.2484 54.3918 43.9898 54.3951 42.5567 53.0441C41.5938 52.1716 40.6171 51.0995 39.6886 50.1683C38.3402 50.827 36.9366 51.367 35.4893 51.7649V55.1731C35.4893 57.2789 33.7804 59 31.6718 59H25.8866C23.7401 59 22.0597 57.3195 22.0597 55.1731V51.3094C21.8252 51.2245 21.5919 51.1368 21.3596 51.0463C20.2043 50.597 19.0664 50.0701 17.9959 49.4428L15.5488 51.9282C14.0498 53.3493 11.6774 53.3419 10.1706 51.9362C8.78224 50.5545 7.39978 49.1465 6.02918 47.7468C4.61387 46.2544 4.55994 43.9415 6.03909 42.4718C6.96845 41.5425 7.90139 40.6162 8.83214 39.6881C8.17415 38.3381 7.63301 36.9376 7.23453 35.489H3.82693C1.72068 35.489 0 33.7811 0 31.6721V25.8867C0 23.7439 1.68311 22.0597 3.82693 22.0597H7.68913C7.95943 21.3031 8.26365 20.5591 8.60086 19.8299C8.8915 19.2013 9.21203 18.587 9.56134 17.989L7.1844 15.6043L7.12679 15.5509C5.63773 14.0619 5.65155 11.6648 7.12252 10.1687C8.52043 8.82453 9.86936 7.3924 11.2541 6.02849C12.7453 4.61352 15.0586 4.56086 16.5276 6.03851C17.4584 6.97537 18.4125 7.89828 19.3536 8.8258C20.685 8.15663 22.0735 7.62713 23.5106 7.23384V3.82659C23.5106 1.7208 25.2197 0 27.3281 0H33.1133C35.2543 0 36.9405 1.68565 36.9405 3.82659V7.68924C37.6879 7.95739 38.4357 8.26011 39.1708 8.60132C39.7991 8.89189 40.4132 9.2123 41.0109 9.56146L43.3786 7.201C44.0264 6.51616 44.9238 6.09094 45.8686 6.02434C46.9278 5.94967 48.0133 6.31796 48.8323 7.12333L48.8362 7.12748Z" fill="white"/>
</g>
<defs>
<clipPath id="clip0_310_113">
<rect width="59" height="59" fill="white"/>
</clipPath>
</defs>
</svg>
